<svg width="640" height="577" viewBox="0 0 640 577" fill="none" xmlns="http://www.w3.org/2000/svg">
<g clip-path="url(#clip0_15_165)">
<mask id="mask0_15_165" style="mask-type:luminance" maskUnits="userSpaceOnUse" x="-65" y="-41" width="775" height="682">
<path d="M709.977 -40.5271H-64.7856V640.829H709.977V-40.5271Z" fill="white"/>
</mask>
<g mask="url(#mask0_15_165)">
<mask id="mask1_15_165" style="mask-type:luminance" maskUnits="userSpaceOnUse" x="-65" y="-41" width="775" height="682">
<path d="M709.977 -40.5271H-64.7856V640.829H709.977V-40.5271Z" fill="white"/>
</mask>
<g mask="url(#mask1_15_165)">
<mask id="mask2_15_165" style="mask-type:luminance" maskUnits="userSpaceOnUse" x="-65" y="-41" width="775" height="682">
<path d="M709.977 -40.5271H-64.7856V640.829H709.977V-40.5271Z" fill="white"/>
</mask>
<g mask="url(#mask2_15_165)">
<g opacity="0.41">
<mask id="mask3_15_165" style="mask-type:luminance" maskUnits="userSpaceOnUse" x="0" y="21" width="636" height="392">
<path d="M635.01 21.3947H0V412.18H635.01V21.3947Z" fill="white"/>
</mask>
<g mask="url(#mask3_15_165)">
<path d="M236.721 403.404C230.409 403.404 224.098 403.172 217.786 402.709C148.569 397.721 68.3807 368.641 33.9193 315.727C3.73456 269.408 -8.04183 209.503 5.67146 157.898C18.5635 109.399 58.5567 70.0979 114.541 55.1762C177.514 38.4012 247.103 58.7874 309.068 35.8665C399.235 2.52095 512.583 29.053 575.788 92.46C631.834 148.726 645.393 239.442 627.805 309.731C618.911 345.257 595.529 379.475 558.294 397.367C528.682 411.594 492.873 414.401 459.016 410.694C431.775 407.71 406.704 399.902 380.517 393.47C359.521 388.319 342.29 391.003 320.798 394.737C293.139 399.547 265.015 403.458 236.721 403.349" fill="#292826"/>
</g>
</g>
<path d="M252.17 369.404C247.072 369.404 241.958 369.214 236.86 368.846C180.845 364.758 115.997 341.278 88.1059 298.461C63.7319 261.014 54.1559 212.542 65.266 170.789C75.6943 131.543 108.048 99.7507 153.356 87.6634C204.305 74.0363 260.614 90.5796 310.757 72.0331C383.724 45.0514 475.441 66.4869 526.59 117.834C571.929 163.362 582.9 236.771 568.675 293.624C561.47 322.377 542.55 350.067 512.428 364.485C488.472 376 459.496 378.262 432.085 375.264C410.051 372.852 389.767 366.529 368.554 361.323C351.51 357.154 337.564 359.334 320.24 362.359C297.819 366.338 275.056 369.5 252.17 369.404Z" stroke="white" stroke-width="1.95" stroke-miterlimit="10" stroke-dasharray="3.85 3.85"/>
<g style="mix-blend-mode:multiply" opacity="0.87">
<mask id="mask4_15_165" style="mask-type:luminance" maskUnits="userSpaceOnUse" x="552" y="555" width="55" height="5">
<path d="M606.639 555.619H552.127V559.257H606.639V555.619Z" fill="white"/>
</mask>
<g mask="url(#mask4_15_165)">
<path d="M606.639 557.39C606.639 558.385 594.444 559.203 579.383 559.203C564.321 559.203 552.126 558.385 552.126 557.39C552.126 556.396 564.321 555.564 579.383 555.564C594.444 555.564 606.639 556.382 606.639 557.39Z" fill="#525259"/>
</g>
</g>
<path d="M582.838 488.505C582.838 488.505 559.502 474.565 574.486 454.301C589.47 434.038 585.736 426.979 580.483 421.269C593.235 434.024 590.446 448.523 582.838 457.776C575.23 467.029 574.037 479.58 582.838 488.505Z" fill="#AFAFB0"/>
<path d="M601.882 505.812H556.884L561.269 555.919H597.497L601.882 505.812Z" fill="white"/>
<path d="M606.639 503.25H552.127V509.123H606.639V503.25Z" fill="#8B8B8C"/>
<path d="M595.932 497.962H562.834C561.256 497.962 559.742 498.514 558.626 499.495C557.51 500.476 556.884 501.807 556.884 503.195H601.82C601.82 501.807 601.193 500.476 600.077 499.495C598.961 498.514 597.448 497.962 595.87 497.962" fill="#5B5B63"/>
<path d="M599.387 534.361L600.441 522.219H558.325L559.378 534.361H599.387Z" fill="#EBB531"/>
<g style="mix-blend-mode:multiply">
<mask id="mask5_15_165" style="mask-type:luminance" maskUnits="userSpaceOnUse" x="579" y="497" width="28" height="59">
<path d="M606.639 497.962H579.538V555.919H606.639V497.962Z" fill="white"/>
</mask>
<g mask="url(#mask5_15_165)">
<path d="M601.851 503.25C601.851 501.862 601.224 500.531 600.108 499.55C598.992 498.568 597.479 498.017 595.901 498.017H579.538C581.116 498.017 582.629 498.568 583.745 499.55C584.861 500.531 585.488 501.862 585.488 503.25H590.245V509.123H585.193L581.103 555.919H597.497L601.587 509.123H606.639V503.25H601.851Z" fill="#AFAFB0"/>
</g>
</g>
<path d="M360.264 191.666C360.264 191.666 369.701 165.651 355.926 158.102C347.155 154.136 342.367 159.069 342.367 159.069C342.367 159.069 338.261 140.686 309.827 146.805C291.435 150.743 285.639 142.417 285.639 142.417C285.639 142.417 285.469 165.474 298.128 172.329C307.302 179.238 303.784 197.92 303.784 197.92L360.264 191.666Z" fill="#2F2F35"/>
<g style="mix-blend-mode:multiply" opacity="0.87">
<mask id="mask6_15_165" style="mask-type:luminance" maskUnits="userSpaceOnUse" x="186" y="531" width="337" height="46">
<path d="M522.562 531.608H186.687V576.21H522.562V531.608Z" fill="white"/>
</mask>
<g mask="url(#mask6_15_165)">
<path d="M443.877 531.608C443.877 531.608 495.011 532.971 509.236 544.526C524.235 556.709 539.978 575.719 475.41 575.351C410.841 574.983 353.617 559.353 299.461 564.313C245.305 569.273 200.881 577.831 187.896 575.923C174.911 574.016 267.231 535.165 267.231 535.165L438.531 540.697L443.877 531.608Z" fill="#525259"/>
</g>
</g>
<path d="M396.089 430.522L331.676 424.826L267.262 430.522C267.262 430.522 263.435 457.286 250.992 471.567L331.676 497.05L412.359 471.54C399.963 457.258 396.089 430.495 396.089 430.495" fill="#A77E35"/>
<g style="mix-blend-mode:multiply">
<mask id="mask7_15_165" style="mask-type:luminance" maskUnits="userSpaceOnUse" x="314" y="424" width="32" height="74">
<path d="M345.637 424.826H314.987V497.05H345.637V424.826Z" fill="white"/>
</mask>
<g mask="url(#mask7_15_165)">
<path d="M329.134 496.246L331.676 497.05L334.217 496.246C349.061 466.266 345.497 432.525 344.63 425.97L331.676 424.826L315.096 426.298C314.77 433.493 314.213 466.402 329.134 496.246Z" fill="#A77E35"/>
</g>
</g>
<g style="mix-blend-mode:multiply">
<mask id="mask8_15_165" style="mask-type:luminance" maskUnits="userSpaceOnUse" x="266" y="424" width="135" height="27">
<path d="M400.134 424.826H266.89V450.445H400.134V424.826Z" fill="white"/>
</mask>
<g mask="url(#mask8_15_165)">
<path d="M266.89 432.702C266.89 432.702 334.666 459.003 400.149 447.569C398.381 441.97 397.03 436.276 396.105 430.522L331.691 424.826L279.937 429.405L266.89 432.702Z" fill="#895436"/>
</g>
</g>
<path d="M298.144 172.274C307.317 179.183 303.8 197.866 303.8 197.866L315.793 196.503C328.112 186.855 342.011 174.7 339.981 170.053C336.448 161.999 326.237 153.959 307.441 153.046C288.645 152.133 285.748 142.308 285.748 142.308C285.748 142.308 285.577 165.365 298.237 172.22" fill="#525259"/>
<path d="M329.336 237.548L276.079 254.623L267.262 430.522C267.262 430.522 286.073 438.276 331.676 438.276V240.274L329.336 237.548Z" fill="white"/>
<path d="M334.015 237.548L387.257 254.623L396.089 430.522C396.089 430.522 377.263 438.276 331.676 438.276V240.274L334.015 237.548Z" fill="white"/>
<path d="M276.079 254.623L275.831 254.691C268.148 257.112 261.138 260.939 255.261 265.919C249.385 270.899 244.777 276.919 241.741 283.581L184.579 405.257L233.188 410.34L274.281 321.641L276.079 254.623Z" fill="#D97A71"/>
<path d="M387.257 254.623L387.505 254.691C395.186 257.115 402.195 260.943 408.071 265.923C413.946 270.902 418.556 276.921 421.595 283.581L478.757 405.257L430.148 410.34L389.055 321.641L387.257 254.623Z" fill="#D97A71"/>
<path d="M443.799 330.826L421.61 283.581C418.573 276.92 413.964 270.901 408.088 265.921C402.212 260.941 395.202 257.114 387.521 254.691L387.288 254.623L389.055 321.641L400.722 346.77C416.218 335.296 431.899 331.575 443.846 330.812" fill="#E8E8E8"/>
<path d="M219.49 330.826L241.695 283.581C244.73 276.919 249.338 270.899 255.215 265.919C261.091 260.939 268.102 257.112 275.784 254.691L276.032 254.623L274.281 321.641L262.629 346.77C247.01 335.268 231.514 331.589 219.49 330.826Z" fill="#E8E8E8"/>
<path d="M390.744 323.971C389.472 322.328 388.308 320.622 387.257 318.861L389.055 321.655C389.055 321.655 368.802 420.547 314.677 437.894C319.884 438.139 325.524 438.276 331.722 438.276C377.309 438.276 396.136 430.522 396.136 430.522L390.744 323.971Z" fill="#D3D3D3"/>
<g style="mix-blend-mode:overlay" opacity="0.52">
<mask id="mask9_15_165" style="mask-type:luminance" maskUnits="userSpaceOnUse" x="186" y="240" width="135" height="161">
<path d="M320.054 240.669H186.888V400.215H320.054V240.669Z" fill="white"/>
</mask>
<g mask="url(#mask9_15_165)">
<path d="M250.992 311.012C264.721 277.121 265.495 277.38 295.494 271.18C325.493 264.98 319.589 240.669 319.589 240.669L291.698 249.635L287.375 250.998L276.156 254.596L275.908 254.664C268.226 257.085 261.215 260.912 255.339 265.892C249.462 270.872 244.854 276.891 241.819 283.553L186.888 400.215C210.038 385.225 239.293 339.874 250.992 311.012Z" fill="#FDF5E8"/>
</g>
</g>
<g style="mix-blend-mode:multiply" opacity="0.28">
<mask id="mask10_15_165" style="mask-type:luminance" maskUnits="userSpaceOnUse" x="343" y="240" width="134" height="161">
<path d="M476.448 240.669H343.282V400.215H476.448V240.669Z" fill="white"/>
</mask>
<g mask="url(#mask10_15_165)">
<path d="M412.36 311.012C398.615 277.121 397.856 277.38 367.857 271.18C337.858 264.98 343.747 240.669 343.747 240.669L371.716 249.635L376.039 250.998L387.257 254.596L387.505 254.664C395.186 257.088 402.195 260.916 408.071 265.895C413.947 270.875 418.556 276.893 421.595 283.553L476.386 400.188C453.252 385.198 423.997 339.847 412.298 310.985" fill="#4C2A29"/>
</g>
</g>
<path d="M331.815 259.243H331.521C329.649 259.243 327.796 258.918 326.068 258.288C324.339 257.658 322.768 256.734 321.446 255.57C320.123 254.405 319.075 253.023 318.36 251.502C317.645 249.981 317.279 248.351 317.281 246.706V216.726H346.071V246.706C346.073 248.353 345.705 249.984 344.99 251.505C344.274 253.027 343.224 254.41 341.9 255.575C340.576 256.739 339.003 257.662 337.273 258.292C335.542 258.921 333.688 259.244 331.815 259.243Z" fill="#D97A71"/>
<path d="M345.838 239.878H346.071V216.78H332.621L317.281 221.659C317.281 221.659 322.936 239.878 345.838 239.878Z" fill="#4C2A29"/>
<path d="M365.161 198.806C365.161 200.423 364.616 202.004 363.594 203.349C362.572 204.693 361.12 205.741 359.422 206.36C357.723 206.979 355.853 207.141 354.05 206.825C352.246 206.51 350.59 205.731 349.29 204.588C347.989 203.444 347.104 201.987 346.745 200.401C346.387 198.815 346.571 197.171 347.274 195.677C347.978 194.183 349.17 192.906 350.698 192.008C352.227 191.109 354.025 190.63 355.864 190.63C358.329 190.63 360.694 191.491 362.438 193.025C364.181 194.558 365.161 196.638 365.161 198.806Z" fill="#C54F4F"/>
<path d="M357.723 206.778C358.988 201.802 359.837 196.751 360.264 191.666C358.935 191.022 357.444 190.68 355.926 190.671C354.628 190.547 353.315 190.665 352.072 191.017C350.83 191.369 349.685 191.947 348.714 192.714C347.742 193.481 346.965 194.419 346.433 195.468C345.901 196.516 345.626 197.651 345.626 198.799C345.626 199.948 345.901 201.083 346.433 202.131C346.965 203.18 347.742 204.118 348.714 204.885C349.685 205.652 350.83 206.23 352.072 206.582C353.315 206.934 354.628 207.052 355.926 206.928C356.529 206.926 357.13 206.876 357.723 206.778Z" fill="#803D3D"/>
<path d="M298.144 198.806C298.144 200.423 298.689 202.004 299.711 203.349C300.732 204.693 302.184 205.741 303.883 206.36C305.582 206.979 307.451 207.141 309.255 206.825C311.058 206.51 312.715 205.731 314.015 204.588C315.315 203.444 316.201 201.987 316.56 200.401C316.918 198.815 316.734 197.171 316.031 195.677C315.327 194.183 314.135 192.906 312.606 192.008C311.077 191.109 309.28 190.63 307.441 190.63C304.975 190.63 302.611 191.491 300.867 193.025C299.123 194.558 298.144 196.638 298.144 198.806Z" fill="#C54F4F"/>
<path d="M305.628 206.778C304.366 201.801 303.512 196.75 303.071 191.666C304.317 191.036 305.712 190.669 307.147 190.594C308.581 190.518 310.016 190.736 311.338 191.23C312.661 191.724 313.835 192.481 314.769 193.442C315.703 194.402 316.371 195.54 316.72 196.766C317.07 197.991 317.092 199.272 316.784 200.506C316.476 201.74 315.848 202.895 314.947 203.88C314.046 204.865 312.899 205.652 311.594 206.181C310.289 206.71 308.862 206.966 307.426 206.928C306.822 206.927 306.221 206.877 305.628 206.778Z" fill="#803D3D"/>
<path d="M347.946 170.38H315.406L307.364 185.86L308.712 201.177C309.44 209.354 315.437 223.458 323.897 226.933C326.295 228.06 328.972 228.65 331.691 228.65C334.41 228.65 337.087 228.06 339.485 226.933C347.93 223.458 353.942 209.34 354.655 201.177L356.019 185.86L347.946 170.38Z" fill="#D97A71"/>
<path d="M339.981 189.785C343.812 190.585 347.803 190.585 351.634 189.785" stroke="#2F2F35" stroke-width="1.34" stroke-miterlimit="10" stroke-linecap="round"/>
<path d="M338.261 180.996C338.261 180.996 346.226 179.824 351.029 182.249" stroke="#2F2F35" stroke-width="2.67" stroke-miterlimit="10" stroke-linecap="round"/>
<path d="M323.324 189.785C319.498 190.585 315.512 190.585 311.687 189.785" stroke="#2F2F35" stroke-width="1.34" stroke-miterlimit="10" stroke-linecap="round"/>
<path d="M325.09 180.996C325.09 180.996 317.11 179.824 312.322 182.249" stroke="#2F2F35" stroke-width="2.67" stroke-miterlimit="10" stroke-linecap="round"/>
<g style="mix-blend-mode:overlay" opacity="0.52">
<mask id="mask11_15_165" style="mask-type:luminance" maskUnits="userSpaceOnUse" x="298" y="170" width="34" height="59">
<path d="M331.676 170.366H298.175V228.636H331.676V170.366Z" fill="white"/>
</mask>
<g mask="url(#mask11_15_165)">
<path d="M318.706 203.085C317.637 187.605 315.406 170.312 315.406 170.312L307.348 185.792L307.782 190.644H307.426C306.128 190.52 304.815 190.638 303.572 190.99C302.329 191.342 301.185 191.92 300.213 192.687C299.242 193.454 298.465 194.392 297.933 195.44C297.401 196.489 297.126 197.624 297.126 198.772C297.126 199.92 297.401 201.056 297.933 202.104C298.465 203.152 299.242 204.091 300.213 204.857C301.185 205.624 302.329 206.203 303.572 206.555C304.815 206.907 306.128 207.025 307.426 206.901C308.211 206.896 308.993 206.8 309.75 206.615C311.935 214.532 317.11 224.112 323.882 226.892C326.294 227.945 328.937 228.531 331.629 228.609C324.11 221.662 319.546 212.647 318.706 203.085Z" fill="#FDF5E8"/>
</g>
</g>
<path d="M387.257 499.325L203.236 450.268C197.44 448.713 191.347 448.204 185.323 448.773C179.298 449.342 173.467 450.977 168.179 453.579C162.892 456.181 158.257 459.696 154.554 463.914C150.851 468.132 148.156 472.964 146.631 478.122L146.399 478.939C144.803 484.237 144.478 489.768 145.443 495.182C146.409 500.596 148.644 505.774 152.008 510.388C155.371 515.001 159.788 518.949 164.98 521.981C170.171 525.012 176.022 527.061 182.162 527.997C250.202 538.449 373.528 556.246 438.438 558.413L465.803 574.465C467.813 575.638 470.214 576.181 472.618 576.005C475.022 575.83 477.288 574.946 479.051 573.498L479.19 573.375C480.213 572.531 481.037 571.519 481.614 570.395C482.192 569.272 482.512 568.059 482.557 566.826C482.601 565.594 482.369 564.366 481.874 563.212C481.379 562.058 480.63 561.002 479.671 560.102L475.41 556.028C473.905 550.891 471.088 546.123 467.173 542.088C463.259 538.052 458.349 534.855 452.818 532.739C434.037 525.762 432.271 508.687 427.855 499.366C423.439 490.045 395.206 485.398 387.257 499.366" fill="#8C4243"/>
<path d="M146.631 478.081C148.156 472.924 150.851 468.091 154.554 463.873C158.257 459.656 162.892 456.14 168.179 453.538C173.467 450.936 179.298 449.302 185.323 448.732C191.347 448.163 197.44 448.672 203.236 450.227L265.604 466.879C256.307 477.195 243.911 498.126 243.461 536.95C220.683 533.693 199.594 530.531 182.162 527.847C176.022 526.911 170.171 524.862 164.98 521.831C159.788 518.799 155.371 514.851 152.008 510.238C148.644 505.624 146.409 500.446 145.443 495.032C144.478 489.618 144.803 484.087 146.399 478.789L146.631 478.081Z" fill="#EBB531"/>
<g style="mix-blend-mode:multiply" opacity="0.67">
<mask id="mask12_15_165" style="mask-type:luminance" maskUnits="userSpaceOnUse" x="144" y="471" width="61" height="60">
<path d="M204.692 471.567H144.912V530.559H204.692V471.567Z" fill="white"/>
</mask>
<g mask="url(#mask12_15_165)">
<path d="M204.692 512.217C204.702 518.59 202.998 524.875 199.718 530.559L182.162 527.833C176.022 526.897 170.171 524.849 164.98 521.817C159.788 518.786 155.371 514.838 152.008 510.224C148.644 505.611 146.409 500.433 145.443 495.019C144.478 489.605 144.803 484.073 146.399 478.776L146.631 477.958C147.204 476.041 147.939 474.164 148.832 472.344C155.569 471.075 162.542 471.148 169.243 472.557C175.943 473.966 182.201 476.676 187.556 480.487C192.912 484.298 197.23 489.114 200.195 494.583C203.16 500.052 204.697 506.035 204.692 512.094" fill="#A77E35"/>
</g>
</g>
<path d="M396.089 521.837C396.089 521.837 393.44 535.396 367.857 530.559" stroke="#7B3D39" stroke-width="1.14" stroke-miterlimit="10"/>
<g style="mix-blend-mode:multiply" opacity="0.28">
<mask id="mask13_15_165" style="mask-type:luminance" maskUnits="userSpaceOnUse" x="198" y="449" width="278" height="107">
<path d="M475.41 449.164H198.215V555.987H475.41V449.164Z" fill="white"/>
</mask>
<g mask="url(#mask13_15_165)">
<path d="M412.359 515.623C412.359 515.623 373.141 514.07 290.195 501.07C222.992 490.522 203.282 460.27 198.215 449.164C199.91 449.434 201.586 449.789 203.236 450.227L387.257 499.284C395.206 485.317 423.438 489.977 427.855 499.284C432.271 508.592 434.053 525.68 452.817 532.657C458.359 534.781 463.275 537.991 467.191 542.042C471.107 546.092 473.918 550.876 475.41 556.028C475.41 556.028 456.087 545.126 443.877 542.837C431.666 540.547 412.359 515.664 412.359 515.664" fill="#4C2A29"/>
</g>
</g>
<path d="M420.851 557.39C420.851 557.39 454.646 585.817 483.452 574.125C484.568 573.651 485.552 572.967 486.333 572.12C487.113 571.273 487.672 570.285 487.968 569.227C488.264 568.168 488.29 567.065 488.045 565.997C487.8 564.928 487.29 563.921 486.551 563.046C462.394 534.115 431.744 502.541 420.092 490.618C418.659 489.163 416.783 488.1 414.685 487.555C412.587 487.009 410.355 487.003 408.253 487.538L375.062 496.068L420.851 557.39Z" fill="#2F2F35"/>
<path d="M375.062 496.068L343.282 487.592L367.361 552.757L420.851 557.431L375.062 496.068Z" fill="#A5A5A5"/>
<path d="M276.079 499.325L460.116 450.268C465.91 448.715 472.002 448.208 478.024 448.778C484.047 449.348 489.876 450.983 495.162 453.585C500.448 456.187 505.081 459.702 508.783 463.918C512.485 468.135 515.179 472.966 516.704 478.122L516.952 478.939C518.548 484.237 518.873 489.768 517.908 495.182C516.942 500.596 514.707 505.774 511.344 510.388C507.981 515.001 503.563 518.949 498.372 521.981C493.181 525.012 487.329 527.061 481.189 527.997C413.134 538.449 289.808 556.246 224.898 558.413L197.533 574.465C195.526 575.637 193.127 576.179 190.726 576.003C188.324 575.828 186.061 574.945 184.3 573.498L184.161 573.375C183.137 572.532 182.312 571.521 181.733 570.397C181.154 569.274 180.833 568.062 180.787 566.829C180.741 565.597 180.971 564.368 181.465 563.214C181.959 562.06 182.707 561.002 183.665 560.102L187.926 556.096C189.434 550.96 192.252 546.194 196.166 542.159C200.081 538.124 204.989 534.926 210.518 532.807C229.314 525.83 231.081 508.755 235.481 499.434C239.882 490.113 268.145 485.467 276.079 499.434" fill="#D97A71"/>
<path d="M516.704 478.081C515.179 472.925 512.485 468.094 508.783 463.877C505.081 459.661 500.448 456.146 495.162 453.544C489.876 450.942 484.047 449.307 478.024 448.737C472.002 448.167 465.91 448.674 460.116 450.227L397.701 466.879C407.107 477.195 419.503 498.126 419.875 536.991C442.668 533.734 463.742 530.572 481.189 527.888C487.329 526.952 493.181 524.903 498.372 521.872C503.563 518.84 507.981 514.892 511.344 510.279C514.707 505.665 516.942 500.487 517.908 495.073C518.873 489.659 518.548 484.128 516.952 478.83L516.704 478.081Z" fill="#EBB531"/>
<g style="mix-blend-mode:multiply" opacity="0.67">
<mask id="mask14_15_165" style="mask-type:luminance" maskUnits="userSpaceOnUse" x="458" y="471" width="61" height="60">
<path d="M518.44 471.567H458.659V530.559H518.44V471.567Z" fill="white"/>
</mask>
<g mask="url(#mask14_15_165)">
<path d="M458.659 512.217C458.649 518.59 460.353 524.875 463.633 530.559L481.189 527.833C487.329 526.897 493.181 524.849 498.372 521.817C503.563 518.786 507.981 514.838 511.344 510.224C514.707 505.611 516.942 500.433 517.908 495.019C518.873 489.605 518.548 484.073 516.952 478.776L516.704 477.958C516.139 476.039 515.404 474.162 514.504 472.344C507.772 471.084 500.806 471.164 494.114 472.578C487.422 473.991 481.174 476.702 475.827 480.513C470.48 484.323 466.169 489.136 463.209 494.6C460.249 500.065 458.716 506.042 458.721 512.094" fill="#A77E35"/>
</g>
</g>
<g style="mix-blend-mode:multiply" opacity="0.28">
<mask id="mask15_15_165" style="mask-type:luminance" maskUnits="userSpaceOnUse" x="187" y="449" width="279" height="107">
<path d="M465.121 449.164H187.926V555.987H465.121V449.164Z" fill="white"/>
</mask>
<g mask="url(#mask15_15_165)">
<path d="M250.992 515.623C250.992 515.623 290.195 514.07 373.141 501.07C440.344 490.522 460.054 460.27 465.121 449.164C463.43 449.433 461.759 449.787 460.116 450.227L276.079 499.284C268.145 485.317 239.897 489.977 235.481 499.284C231.065 508.592 229.283 525.68 210.518 532.657C204.979 534.784 200.064 537.995 196.149 542.045C192.234 546.095 189.421 550.877 187.926 556.028C187.926 556.028 207.249 545.126 219.459 542.837C231.669 540.547 250.992 515.664 250.992 515.664" fill="#4C2A29"/>
</g>
</g>
<g opacity="0.57">
<mask id="mask16_15_165" style="mask-type:luminance" maskUnits="userSpaceOnUse" x="143" y="447" width="114" height="87">
<path d="M256.338 447.161H143.796V533.448H256.338V447.161Z" fill="white"/>
</mask>
<g mask="url(#mask16_15_165)">
<path d="M210.518 532.698L182.937 528.201C177.004 527.368 171.318 525.509 166.208 522.731C161.098 519.952 156.665 516.31 153.166 512.015C149.667 507.72 147.171 502.858 145.824 497.709C144.476 492.56 144.303 487.227 145.314 482.019L145.485 481.16C146.581 475.533 149.035 470.178 152.683 465.455C156.33 460.732 161.087 456.751 166.631 453.781C172.175 450.811 178.379 448.921 184.824 448.237C191.27 447.554 197.806 448.093 203.995 449.818L256.074 464.344" stroke="white" stroke-width="1.11" stroke-miterlimit="10"/>
</g>
</g>
<path d="M322.208 202.881C321.984 202.881 321.764 202.937 321.573 203.041C321.383 203.146 321.229 203.295 321.129 203.471C321.029 203.648 320.988 203.846 321.009 204.043C321.029 204.239 321.112 204.427 321.247 204.584C322.369 206.123 323.913 207.389 325.736 208.266C327.56 209.143 329.605 209.602 331.683 209.602C333.762 209.602 335.807 209.143 337.631 208.266C339.454 207.389 340.998 206.123 342.119 204.584C342.255 204.427 342.337 204.239 342.358 204.043C342.379 203.846 342.337 203.648 342.238 203.471C342.138 203.295 341.984 203.146 341.794 203.041C341.603 202.937 341.383 202.881 341.159 202.881H322.208Z" fill="white"/>
<path d="M334.403 189.458V197.88C333.575 197.55 332.677 197.379 331.769 197.379C330.86 197.379 329.962 197.55 329.134 197.88" stroke="#2F2F35" stroke-width="0.82" stroke-miterlimit="10" stroke-linecap="round"/>
<path d="M342.383 159.07H340.028V172.247H342.383V159.07Z" fill="#D97A71"/>
<path d="M478.818 405.257L478.911 405.489C481.565 411.986 481.458 419.108 478.61 425.542C475.763 431.976 470.366 437.287 463.416 440.497L365.13 485.807L364.65 484.703C360.459 475.186 360.303 464.66 364.209 455.05C368.115 445.44 375.823 437.386 385.924 432.362L430.179 410.34L478.818 405.257Z" fill="#D97A71"/>
<g style="mix-blend-mode:multiply" opacity="0.28">
<mask id="mask17_15_165" style="mask-type:luminance" maskUnits="userSpaceOnUse" x="458" y="414" width="23" height="28">
<path d="M480.817 414.06H458.07V441.833H480.817V414.06Z" fill="white"/>
</mask>
<g mask="url(#mask17_15_165)">
<path d="M458.07 433.002C458.067 436.079 458.918 439.11 460.55 441.833L463.447 440.47C468.872 437.957 473.38 434.147 476.451 429.48C479.521 424.812 481.029 419.476 480.802 414.088C480.399 414.088 480.012 414.088 479.609 414.088C473.896 414.088 468.418 416.083 464.379 419.636C460.34 423.188 458.07 428.006 458.07 433.029" fill="#4C2A29"/>
</g>
</g>
<path d="M430.21 410.34L458.07 396.454" stroke="#4C2A29" stroke-width="1.34" stroke-miterlimit="10" stroke-linecap="round"/>
<path d="M184.812 405.257L184.719 405.489C182.065 411.986 182.172 419.108 185.02 425.542C187.868 431.976 193.264 437.287 200.214 440.497L298.5 485.807L298.981 484.703C303.171 475.186 303.327 464.66 299.421 455.05C295.515 445.44 287.807 437.386 277.706 432.362L233.451 410.34L184.812 405.257Z" fill="#D97A71"/>
<g style="mix-blend-mode:multiply" opacity="0.28">
<mask id="mask18_15_165" style="mask-type:luminance" maskUnits="userSpaceOnUse" x="182" y="414" width="24" height="28">
<path d="M205.56 414.06H182.813V441.833H205.56V414.06Z" fill="white"/>
</mask>
<g mask="url(#mask18_15_165)">
<path d="M205.56 433.002C205.563 436.079 204.712 439.11 203.081 441.833L200.183 440.47C194.758 437.957 190.25 434.147 187.18 429.48C184.109 424.812 182.601 419.476 182.828 414.088C183.231 414.088 183.619 414.088 184.022 414.088C189.734 414.088 195.212 416.083 199.251 419.636C203.291 423.188 205.56 428.006 205.56 433.029" fill="#4C2A29"/>
</g>
</g>
<path d="M233.42 410.34L205.56 396.454" stroke="#4C2A29" stroke-width="1.34" stroke-miterlimit="10" stroke-linecap="round"/>
<path d="M287.561 480.779C287.561 480.779 292.519 456.85 276.373 449.164" stroke="#4C2A29" stroke-width="1.34" stroke-miterlimit="10" stroke-linecap="round"/>
<path d="M375.791 480.779C375.791 480.779 370.817 456.85 386.978 449.164" stroke="#4C2A29" stroke-width="1.34" stroke-miterlimit="10" stroke-linecap="round"/>
<path d="M242.501 557.39C242.501 557.39 208.705 585.817 179.9 574.125C178.775 573.66 177.782 572.981 176.991 572.137C176.201 571.294 175.633 570.306 175.33 569.246C175.026 568.187 174.993 567.081 175.234 566.008C175.475 564.936 175.984 563.924 176.723 563.046C201.004 534.061 231.592 502.487 243.26 490.618C244.69 489.164 246.564 488.102 248.659 487.556C250.754 487.01 252.983 487.004 255.083 487.538L288.274 496.068L242.501 557.39Z" fill="#2F2F35"/>
<path d="M288.274 496.068L320.07 487.592L295.99 552.757L242.501 557.431L288.274 496.068Z" fill="#ECECEC"/>
<g style="mix-blend-mode:multiply" opacity="0.28">
<mask id="mask19_15_165" style="mask-type:luminance" maskUnits="userSpaceOnUse" x="275" y="487" width="46" height="27">
<path d="M320.07 487.592H275.056V513.797H320.07V487.592Z" fill="white"/>
</mask>
<g mask="url(#mask19_15_165)">
<path d="M275.056 513.784C284.493 512.898 296.749 511.603 311.888 509.696L320.07 487.552L288.274 496.068L275.056 513.784Z" fill="#4C2A29"/>
</g>
</g>
<path d="M252.619 537.645L234.18 562.364C233.618 563.118 232.825 563.717 231.893 564.091C230.96 564.464 229.927 564.598 228.911 564.477H228.787C227.87 564.369 226.999 564.057 226.258 563.57C225.517 563.083 224.929 562.437 224.552 561.694C224.175 560.951 224.02 560.136 224.102 559.325C224.184 558.515 224.501 557.736 225.022 557.064L243.88 532.535C244.47 531.77 245.31 531.18 246.29 530.844C247.269 530.509 248.342 530.442 249.365 530.654H249.473C250.282 530.828 251.031 531.17 251.657 531.652C252.284 532.133 252.769 532.741 253.073 533.422C253.377 534.103 253.49 534.839 253.403 535.567C253.316 536.294 253.031 536.993 252.572 537.604" fill="#FDF5E8"/>
<path d="M329.134 394.792H216.283L244.112 481.951H329.134H414.172L442.002 394.792H329.134Z" fill="#AFAFB0"/>
<path d="M414.172 481.951H244.112V494.651H414.172V481.951Z" fill="#8B8B8C"/>
<path d="M356.917 445.239C356.917 452.053 344.521 457.667 329.336 457.667C314.151 457.667 301.739 452.107 301.739 445.239C301.739 438.371 314.135 432.811 329.336 432.811C344.537 432.811 356.917 438.385 356.917 445.239Z" fill="#5B5B63"/>
<path d="M441.986 389H216.283V394.778H441.986V389Z" fill="#5B5B63"/>
<path d="M270.562 485.589H253.533V490.699H270.562V485.589Z" fill="#5B5B63"/>
<path d="M295.138 485.589H278.109V490.699H295.138V485.589Z" fill="#5B5B63"/>
<path d="M414.172 488.301H310.664" stroke="#171814" stroke-miterlimit="10"/>
<g style="mix-blend-mode:overlay" opacity="0.54">
<mask id="mask20_15_165" style="mask-type:luminance" maskUnits="userSpaceOnUse" x="216" y="389" width="147" height="93">
<path d="M362.496 389.014H216.283V481.951H362.496V389.014Z" fill="white"/>
</mask>
<g mask="url(#mask20_15_165)">
<path d="M216.283 394.792L244.174 482.005H304.745C340.709 445.335 362.558 394.792 362.558 394.792V389.014H216.283V394.792Z" fill="white"/>
</g>
</g>
<g opacity="0.57">
<mask id="mask21_15_165" style="mask-type:luminance" maskUnits="userSpaceOnUse" x="216" y="394" width="226" height="2">
<path d="M441.986 394.11H216.283V395.473H441.986V394.11Z" fill="white"/>
</mask>
<g mask="url(#mask21_15_165)">
<path d="M216.283 394.792H442.002" stroke="#171814" stroke-miterlimit="10"/>
</g>
</g>
<g style="mix-blend-mode:multiply" opacity="0.87">
<mask id="mask22_15_165" style="mask-type:luminance" maskUnits="userSpaceOnUse" x="58" y="555" width="82" height="5">
<path d="M139.953 555.619H58.1071V559.257H139.953V555.619Z" fill="white"/>
</mask>
<g mask="url(#mask22_15_165)">
<path d="M139.953 557.39C139.953 558.385 121.638 559.203 99.0301 559.203C76.4225 559.203 58.1071 558.385 58.1071 557.39C58.1071 556.396 76.4225 555.564 99.0301 555.564C121.638 555.564 139.953 556.382 139.953 557.39Z" fill="#525259"/>
</g>
</g>
<path d="M105.011 539.512L107.692 536.95L106.359 538.231L107.707 536.95C107.382 536.677 75.1674 507.883 114.091 378.112L110.264 377.226C70.3639 509.696 103.586 538.312 105.011 539.512Z" fill="#5B5B63"/>
<path d="M92.9869 380.347C107.754 392.162 105.166 406.116 105.166 406.116C105.166 406.116 90.3682 400.57 86.9438 383.277C86.8085 382.617 86.912 381.937 87.2395 381.332C87.567 380.727 88.1021 380.227 88.7694 379.904C89.4367 379.58 90.2026 379.449 90.9592 379.529C91.7158 379.608 92.425 379.894 92.9869 380.347Z" fill="#5B5B63"/>
<path d="M129.959 388.687C110.543 392.775 105.166 406.116 105.166 406.116C105.166 406.116 121.173 407.478 133.646 393.851C134.135 393.333 134.424 392.692 134.472 392.02C134.521 391.349 134.327 390.681 133.917 390.112C133.508 389.543 132.905 389.103 132.194 388.854C131.483 388.606 130.7 388.561 129.959 388.728" fill="#5B5B63"/>
<path d="M82.8531 414.306C98.9061 424.744 97.9299 438.835 97.9299 438.835C97.9299 438.835 82.5742 434.624 77.1818 417.713C76.9683 417.069 76.991 416.382 77.2467 415.75C77.5025 415.118 77.9783 414.574 78.6064 414.193C79.2345 413.813 79.983 413.616 80.7454 413.632C81.5078 413.647 82.2453 413.873 82.8531 414.278" fill="#5B5B63"/>
<path d="M120.599 419.32C101.742 425.112 97.9299 438.834 97.9299 438.834C97.9299 438.834 114.014 438.834 124.861 424.063C125.281 423.503 125.49 422.842 125.458 422.172C125.427 421.502 125.156 420.858 124.684 420.331C124.212 419.804 123.563 419.422 122.83 419.238C122.097 419.054 121.316 419.078 120.599 419.307" fill="#5B5B63"/>
<path d="M76.438 444.054C93.3279 453.416 93.4828 467.561 93.4828 467.561C93.4828 467.561 77.8016 464.358 71.0147 447.856C70.7458 447.228 70.709 446.541 70.9096 445.894C71.1102 445.246 71.5379 444.671 72.1319 444.25C72.7259 443.828 73.4559 443.583 74.218 443.547C74.98 443.512 75.7352 443.689 76.3761 444.054" fill="#5B5B63"/>
<path d="M114.494 446.602C96.1944 453.606 93.6068 467.56 93.6068 467.56C93.6068 467.56 109.644 466.498 119.22 451.085C119.589 450.499 119.74 449.826 119.651 449.161C119.562 448.496 119.238 447.872 118.725 447.377C118.212 446.882 117.535 446.541 116.79 446.402C116.045 446.263 115.269 446.333 114.572 446.602" fill="#5B5B63"/>
<path d="M124.597 354.346C124.923 371.912 111.581 379.802 111.581 379.802C111.581 379.802 106.049 366.529 118.027 352.479C118.481 351.94 119.115 351.539 119.842 351.333C120.568 351.128 121.35 351.129 122.076 351.335C122.802 351.541 123.436 351.943 123.888 352.483C124.341 353.024 124.589 353.675 124.597 354.346Z" fill="#5B5B63"/>
<path d="M118.941 481.978H76.0352V556.627H118.941V481.978Z" fill="#EBB531"/>
<g style="mix-blend-mode:multiply" opacity="0.67">
<mask id="mask23_15_165" style="mask-type:luminance" maskUnits="userSpaceOnUse" x="101" y="481" width="18" height="76">
<path d="M118.926 481.978H101.788V556.627H118.926V481.978Z" fill="white"/>
</mask>
<g mask="url(#mask23_15_165)">
<path d="M118.926 481.978H101.788V556.627H118.926V481.978Z" fill="#A77E35"/>
</g>
</g>
<path d="M137.768 125.969L122.273 129.349C121.737 129.464 121.18 129.485 120.634 129.411C120.089 129.336 119.565 129.167 119.094 128.914C118.623 128.661 118.214 128.328 117.89 127.935C117.566 127.542 117.333 127.096 117.206 126.623L115.656 121.377L139.209 116.226L140.759 121.472C140.89 121.944 140.914 122.434 140.829 122.914C140.745 123.393 140.553 123.854 140.264 124.268C139.976 124.682 139.598 125.042 139.151 125.327C138.704 125.612 138.197 125.816 137.66 125.928" fill="#A77E35"/>
<path d="M195.132 109.78L61.7795 138.942C61.2321 139.067 60.6621 139.095 60.1021 139.026C59.5422 138.956 59.0034 138.79 58.5167 138.537C58.03 138.284 57.605 137.948 57.2661 137.55C56.9273 137.152 56.6812 136.699 56.5421 136.217L34.5544 58.4059C34.4125 57.9245 34.3801 57.4232 34.4592 56.9307C34.5383 56.4383 34.7273 55.9644 35.0153 55.5364C35.3033 55.1084 35.6846 54.7347 36.1373 54.4367C36.5901 54.1387 37.1053 53.9223 37.6534 53.7999L171.083 24.6379C171.629 24.5151 172.198 24.4882 172.756 24.5588C173.314 24.6293 173.851 24.7959 174.336 25.049C174.821 25.3021 175.244 25.6368 175.582 26.0339C175.92 26.431 176.166 26.8827 176.305 27.3633L198.308 105.133C198.586 106.105 198.417 107.135 197.836 107.997C197.256 108.86 196.312 109.486 195.209 109.739" fill="#A77E35"/>
<path d="M191.18 96.3302L187.461 105.733L69.1398 131.611L58.634 125.329L36.8477 48.2673L169.394 19.2688L191.18 96.3302Z" fill="#EBB531"/>
<path d="M101.43 34.126L36.8466 48.2556L58.644 125.312L123.228 111.183L101.43 34.126Z" fill="white"/>
<path d="M97.4547 40.7161L44.3894 52.3257L45.1525 55.0234L98.2178 43.4138L97.4547 40.7161Z" fill="#AFAFB0"/>
<path d="M99.8901 49.3336L46.8248 60.9432L47.5879 63.641L100.653 52.0313L99.8901 49.3336Z" fill="#AFAFB0"/>
<path d="M102.326 57.9647L49.2602 69.5743L50.0233 72.272L103.089 60.6624L102.326 57.9647Z" fill="#AFAFB0"/>
<path d="M104.772 66.5792L51.7069 78.1888L52.47 80.8865L105.535 69.2769L104.772 66.5792Z" fill="#AFAFB0"/>
<path d="M107.208 75.1966L54.1423 86.8063L54.9054 89.504L107.971 77.8944L107.208 75.1966Z" fill="#AFAFB0"/>
<path d="M109.658 83.8245L56.5927 95.4341L57.3559 98.1318L110.421 86.5222L109.658 83.8245Z" fill="#AFAFB0"/>
<path d="M112.093 92.4556L59.0282 104.065L59.7913 106.763L112.857 95.1533L112.093 92.4556Z" fill="#AFAFB0"/>
<path d="M114.51 101.06L61.4443 112.669L62.2074 115.367L115.273 103.758L114.51 101.06Z" fill="#AFAFB0"/>
<path d="M169.406 19.2614L104.822 33.391L126.619 110.448L191.203 96.3181L169.406 19.2614Z" fill="white"/>
<path d="M164.932 25.9535L111.867 37.5631L112.63 40.2608L165.696 28.6512L164.932 25.9535Z" fill="#AFAFB0"/>
<path d="M167.368 34.5709L114.303 46.1805L115.066 48.8783L168.131 37.2686L167.368 34.5709Z" fill="#AFAFB0"/>
<path d="M169.818 43.1987L116.753 54.8083L117.516 57.5061L170.581 45.8964L169.818 43.1987Z" fill="#AFAFB0"/>
<path d="M172.25 51.8166L119.185 63.4263L119.948 66.124L173.013 54.5143L172.25 51.8166Z" fill="#AFAFB0"/>
<path d="M174.685 60.4477L121.62 72.0574L122.383 74.7551L175.448 63.1454L174.685 60.4477Z" fill="#AFAFB0"/>
<path d="M177.136 69.0619L124.07 80.6715L124.834 83.3692L177.899 71.7596L177.136 69.0619Z" fill="#AFAFB0"/>
<path d="M179.567 77.6798L126.502 89.2894L127.265 91.9871L180.331 80.3775L179.567 77.6798Z" fill="#AFAFB0"/>
<path d="M182.003 86.3108L128.938 97.9204L129.701 100.618L182.766 89.0085L182.003 86.3108Z" fill="#AFAFB0"/>
<path d="M133.724 121.459L123.513 123.694C122.976 123.809 122.419 123.83 121.874 123.756C121.328 123.681 120.805 123.512 120.334 123.259C119.863 123.005 119.453 122.673 119.129 122.279C118.805 121.886 118.573 121.441 118.446 120.968L117.516 117.67L135.831 113.664L136.777 116.962C136.908 117.432 136.932 117.921 136.847 118.4C136.762 118.879 136.569 119.339 136.281 119.752C135.993 120.165 135.614 120.524 135.167 120.807C134.721 121.091 134.214 121.294 133.677 121.404" fill="#EBB531"/>
<path d="M360.512 10.6564C355.082 6.30341 348.636 3.04765 341.624 1.11745L341.314 1.03569C335.066 -0.436051 328.487 -0.436051 322.239 1.03569L321.929 1.11745C314.916 3.04439 308.468 6.30054 303.04 10.6564C287.266 23.8475 289.823 47.7904 305.194 60.4227C309.502 63.9658 311.392 68.599 312.709 73.5865C313.112 75.0991 315.39 90.9475 314.6 90.9475H348.953C348.147 90.9475 350.502 75.0991 350.828 73.5865C352.16 68.5445 354.051 63.9658 358.358 60.4227C373.714 47.7904 376.286 23.8475 360.512 10.6564Z" fill="#EBB531"/>
<g style="mix-blend-mode:overlay" opacity="0.52">
<mask id="mask24_15_165" style="mask-type:luminance" maskUnits="userSpaceOnUse" x="292" y="0" width="47" height="91">
<path d="M338.215 0.0136719H292.364V90.9475H338.215V0.0136719Z" fill="white"/>
</mask>
<g mask="url(#mask24_15_165)">
<path d="M325.586 73.6275C324.269 68.5718 322.378 64.0067 318.071 60.4637C302.715 47.8313 300.143 23.8885 315.917 10.6974C321.345 6.34149 327.792 3.08535 334.806 1.1584L335.116 1.07665C336.138 0.844984 337.176 0.654204 338.215 0.490678C332.905 -0.344701 327.451 -0.14467 322.239 1.07665L321.929 1.1584C314.916 3.08535 308.468 6.34149 303.04 10.6974C287.266 23.8885 289.823 47.8313 305.194 60.4637C309.502 64.0067 311.392 68.5718 312.709 73.6275C313.112 75.1401 315.39 90.9885 314.6 90.9885H327.476C328.282 90.9885 325.927 75.1401 325.586 73.6275Z" fill="#FDF5E8"/>
</g>
</g>
<path d="M331.769 90.9475V53.9907L339.16 50.2433C339.726 49.9858 340.188 49.5812 340.483 49.0845C340.778 48.5878 340.892 48.0231 340.809 47.4674C340.726 46.9118 340.45 46.3921 340.019 45.9793C339.588 45.5665 339.023 45.2805 338.401 45.1604L324.935 42.0398C324.432 41.9213 323.983 41.669 323.649 41.3172C323.315 40.9654 323.113 40.5315 323.071 40.0748C323.028 39.6182 323.147 39.1612 323.412 38.7664C323.676 38.3717 324.073 38.0585 324.548 37.8698L331.769 35.0081V22.4712" stroke="white" stroke-width="2.24" stroke-miterlimit="10" stroke-linecap="round"/>
<path d="M352.377 96.0304C352.377 96.297 352.318 96.561 352.202 96.8074C352.086 97.0537 351.916 97.2776 351.701 97.4661C351.487 97.6546 351.232 97.8042 350.952 97.9062C350.672 98.0083 350.372 98.0608 350.069 98.0608H312.276C311.659 98.0608 311.068 97.8455 310.632 97.4621C310.196 97.0788 309.951 96.5588 309.951 96.0167C309.951 95.4746 310.196 94.9547 310.632 94.5714C311.068 94.188 311.659 93.9727 312.276 93.9727H350.053C350.667 93.9763 351.254 94.1932 351.687 94.5762C352.119 94.9591 352.362 95.477 352.362 96.0167" fill="#2F2F35"/>
<path d="M352.377 102.122C352.377 102.661 352.135 103.179 351.702 103.562C351.27 103.945 350.682 104.162 350.069 104.166H312.276C311.659 104.166 311.068 103.95 310.632 103.567C310.196 103.184 309.951 102.664 309.951 102.122C309.951 101.58 310.196 101.06 310.632 100.676C311.068 100.293 311.659 100.078 312.276 100.078H350.053C350.665 100.078 351.253 100.292 351.686 100.672C352.119 101.053 352.362 101.57 352.362 102.108" fill="#2F2F35"/>
<path d="M352.377 108.227C352.377 108.493 352.318 108.757 352.202 109.004C352.086 109.25 351.916 109.474 351.701 109.662C351.487 109.851 351.232 110 350.952 110.103C350.672 110.205 350.372 110.257 350.069 110.257H312.276C311.659 110.257 311.068 110.042 310.632 109.658C310.196 109.275 309.951 108.755 309.951 108.213C309.951 107.671 310.196 107.151 310.632 106.768C311.068 106.384 311.659 106.169 312.276 106.169H350.053C350.665 106.169 351.253 106.383 351.686 106.764C352.119 107.144 352.362 107.661 352.362 108.199" fill="#2F2F35"/>
<path d="M331.164 124.498C334.744 124.498 338.177 123.247 340.708 121.021C343.239 118.795 344.661 115.776 344.661 112.628H317.683C317.681 114.186 318.029 115.729 318.705 117.169C319.382 118.609 320.374 119.918 321.626 121.02C322.878 122.123 324.365 122.997 326.002 123.594C327.638 124.19 329.393 124.498 331.164 124.498Z" fill="#2F2F35"/>
<path d="M490.967 132.292V122.753H486.179C485.287 118.307 483.222 114.107 480.151 110.489L483.947 107.137L476.2 100.391L472.248 103.866C468.118 101.387 463.394 99.778 458.442 99.1647V94.1771H447.596V99.3554C442.84 100.148 438.342 101.856 434.425 104.357L430.582 100.977L422.912 107.791L426.801 111.211C423.905 114.846 422.002 119.02 421.238 123.407H415.908V132.946H421.424C422.288 137.236 424.254 141.296 427.173 144.816L422.927 148.577L430.675 155.39L434.967 151.615C438.978 154.099 443.576 155.753 448.417 156.453V161.604H459.264V156.453C464.091 155.757 468.677 154.113 472.682 151.643L476.277 154.804L484.025 147.991L480.492 144.884C483.564 141.188 485.584 136.898 486.38 132.374L490.967 132.292ZM453.778 144.039C450.125 144.039 446.554 143.086 443.517 141.301C440.479 139.516 438.112 136.98 436.714 134.011C435.316 131.043 434.95 127.777 435.663 124.626C436.375 121.475 438.135 118.581 440.718 116.309C443.301 114.038 446.592 112.491 450.175 111.864C453.758 111.237 457.471 111.559 460.846 112.788C464.221 114.018 467.106 116.1 469.136 118.771C471.165 121.442 472.248 124.583 472.248 127.795C472.248 132.103 470.303 136.235 466.839 139.281C463.375 142.327 458.677 144.039 453.778 144.039Z" fill="#666766"/>
<path d="M534.276 168.527V163.076H531.518C530.999 160.516 529.805 158.098 528.031 156.017L530.232 154.082L525.8 150.185L523.522 152.188C521.132 150.767 518.411 149.836 515.558 149.462V146.533H509.36V149.517C506.612 149.975 504.014 150.961 501.751 152.406L499.536 150.457L495.104 154.355L497.351 156.331C495.684 158.428 494.587 160.833 494.143 163.362H491.044V168.881H494.236C494.74 171.344 495.874 173.674 497.552 175.695L495.104 177.848L499.536 181.745L502.015 179.565C504.331 180.975 506.979 181.907 509.762 182.29V185.37H515.961V182.372C518.742 181.983 521.389 181.052 523.708 179.647L525.769 181.459L530.201 177.575L528.171 175.776C529.937 173.645 531.1 171.173 531.564 168.568L534.276 168.527ZM512.83 175.34C510.722 175.34 508.661 174.79 506.908 173.76C505.155 172.73 503.788 171.266 502.981 169.553C502.174 167.84 501.963 165.954 502.375 164.136C502.786 162.317 503.801 160.647 505.292 159.335C506.783 158.024 508.683 157.131 510.751 156.77C512.819 156.408 514.962 156.593 516.91 157.303C518.858 158.013 520.523 159.214 521.695 160.756C522.866 162.298 523.491 164.111 523.491 165.965C523.491 168.451 522.368 170.836 520.369 172.594C518.37 174.353 515.658 175.34 512.83 175.34Z" fill="#9E9D9D"/>
<path d="M632.981 97.1615V77.5521H623.126C621.296 68.4317 617.049 59.8185 610.73 52.41L618.555 45.5283L602.78 31.6695L594.676 38.7965C586.186 33.7185 576.486 30.4181 566.32 29.1485V18.9009H544.038V29.53C534.272 31.1637 525.039 34.6771 516.999 39.8185L509.096 32.8823L493.384 46.7547L501.38 53.7863C495.422 61.2428 491.508 69.8108 489.944 78.8194H478.819V98.4288H490.146C491.934 107.228 495.971 115.554 501.953 122.781L493.245 130.453L509.003 144.311L517.836 136.558C526.084 141.653 535.533 145.049 545.479 146.492V157.08H567.761V146.492C577.669 145.05 587.083 141.674 595.312 136.612L602.687 143.099L618.462 129.226L611.21 122.862C617.511 115.264 621.66 106.453 623.312 97.1615H632.981ZM556.62 121.322C549.114 121.325 541.776 119.37 535.533 115.705C529.291 112.039 524.424 106.828 521.55 100.73C518.675 94.6324 517.922 87.9218 519.384 81.4472C520.847 74.9726 524.459 69.0248 529.766 64.3562C535.072 59.6876 541.834 56.5078 549.196 55.219C556.557 53.9302 564.188 54.5903 571.123 57.1158C578.058 59.6413 583.986 63.9188 588.156 69.4072C592.326 74.8956 594.552 81.3484 594.552 87.9495C594.555 92.3315 593.575 96.6709 591.669 100.72C589.764 104.769 586.97 108.448 583.448 111.547C579.925 114.646 575.743 117.104 571.14 118.782C566.537 120.459 561.603 121.322 556.62 121.322Z" fill="#8B8B8C"/>
<path d="M578.158 87.9904C578.158 91.864 576.852 95.6505 574.405 98.8711C571.957 102.092 568.479 104.602 564.409 106.083C560.34 107.565 555.862 107.952 551.542 107.195C547.222 106.439 543.255 104.572 540.141 101.832C537.028 99.0923 534.909 95.6018 534.051 91.8023C533.194 88.0029 533.637 84.0651 535.325 80.4872C537.012 76.9092 539.869 73.8519 543.532 71.7018C547.196 69.5517 551.503 68.4055 555.907 68.4082C561.81 68.4118 567.47 70.4765 571.642 74.1485C575.815 77.8205 578.158 82.7992 578.158 87.9904Z" fill="#666766"/>
<path d="M122.257 188.095C74.4237 190.657 37.2506 215.867 39.2185 244.403C41.1864 272.938 81.567 294.033 129.401 291.471H129.494C130.601 291.406 131.679 291.129 132.651 290.658C133.623 290.186 134.466 289.533 135.119 288.744C135.772 287.955 136.22 287.049 136.432 286.091C136.643 285.133 136.613 284.146 136.343 283.199C135.27 279.519 135.12 275.677 135.901 271.94C136.683 268.204 138.379 264.661 140.871 261.557C143.362 258.453 146.591 255.863 150.333 253.964C154.076 252.066 158.242 250.905 162.545 250.562C167.823 250.133 173.136 250.95 177.935 252.929C182.734 254.907 186.846 257.976 189.848 261.818C190.516 262.688 191.407 263.406 192.45 263.916C193.493 264.426 194.658 264.712 195.85 264.752C197.043 264.792 198.229 264.584 199.313 264.145C200.397 263.706 201.348 263.049 202.089 262.227C209.279 254.051 213.106 244.825 212.44 235.163C210.472 206.628 170.091 185.547 122.257 188.095Z" fill="#5B5B63"/>
<path d="M121.948 183.517C74.1137 186.078 36.9252 211.261 38.8931 239.878C40.861 268.495 81.2415 289.508 129.075 286.947H129.246C130.353 286.883 131.431 286.605 132.402 286.134C133.374 285.662 134.215 285.009 134.867 284.22C135.52 283.43 135.966 282.524 136.176 281.566C136.385 280.608 136.352 279.621 136.079 278.675C135.007 274.989 134.857 271.143 135.64 267.402C136.422 263.661 138.118 260.113 140.61 257.004C143.103 253.895 146.332 251.298 150.076 249.393C153.821 247.488 157.99 246.32 162.297 245.97C167.576 245.548 172.887 246.37 177.685 248.35C182.484 250.331 186.596 253.399 189.6 257.239C190.268 258.109 191.16 258.827 192.202 259.337C193.245 259.847 194.41 260.133 195.603 260.173C196.795 260.213 197.981 260.005 199.065 259.566C200.149 259.128 201.1 258.471 201.841 257.648C209.031 249.472 212.843 240.246 212.176 230.585C210.208 202.049 169.843 180.968 122.01 183.517" fill="#8B8B8C"/>
<path d="M105.058 264.407C105.183 266.223 104.692 268.03 103.649 269.601C102.606 271.172 101.057 272.435 99.1978 273.232C97.3383 274.028 95.252 274.322 93.2027 274.076C91.1534 273.83 89.233 273.055 87.6844 271.85C86.1358 270.644 85.0284 269.061 84.5023 267.302C83.9762 265.543 84.0549 263.686 84.7286 261.966C85.4022 260.247 86.6406 258.741 88.2871 257.64C89.9335 256.539 91.9142 255.892 93.9786 255.781C96.7477 255.636 99.4694 256.462 101.546 258.079C103.623 259.697 104.886 261.972 105.058 264.407Z" fill="#EBB531"/>
<path d="M76.562 247.032C76.6868 248.848 76.1967 250.656 75.1537 252.226C74.1106 253.797 72.5615 255.061 70.702 255.857C68.8425 256.654 66.7563 256.947 64.707 256.701C62.6576 256.455 60.7373 255.68 59.1886 254.475C57.64 253.269 56.5326 251.687 56.0065 249.927C55.4804 248.168 55.5591 246.311 56.2328 244.592C56.9065 242.872 58.1448 241.366 59.7913 240.265C61.4378 239.165 63.4184 238.518 65.4829 238.407C68.252 238.261 70.9736 239.088 73.0506 240.705C75.1277 242.322 76.3905 244.598 76.562 247.032Z" fill="#EBB531"/>
<path d="M84.9294 216.59C85.0545 218.406 84.5642 220.214 83.5206 221.785C82.477 223.356 80.927 224.62 79.0666 225.416C77.2063 226.213 75.1191 226.506 73.0693 226.259C71.0194 226.012 69.0989 225.236 67.5507 224.029C66.0025 222.821 64.8962 221.238 64.3716 219.477C63.8471 217.717 63.928 215.86 64.604 214.14C65.28 212.42 66.5208 210.916 68.1695 209.816C69.8181 208.717 71.8005 208.072 73.8658 207.964C75.2371 207.888 76.6118 208.052 77.911 208.445C79.2102 208.838 80.4083 209.453 81.4364 210.254C82.4645 211.056 83.3023 212.028 83.9018 213.115C84.5012 214.203 84.8505 215.383 84.9294 216.59Z" fill="#EBB531"/>
<path d="M120.243 200.128C120.368 201.944 119.878 203.752 118.834 205.324C117.791 206.895 116.241 208.158 114.38 208.955C112.52 209.751 110.433 210.044 108.383 209.797C106.333 209.55 104.413 208.774 102.864 207.567C101.316 206.36 100.21 204.776 99.6853 203.016C99.1608 201.256 99.2417 199.398 99.9177 197.679C100.594 195.959 101.835 194.454 103.483 193.355C105.132 192.255 107.114 191.611 109.179 191.502C111.947 191.357 114.667 192.184 116.741 193.801C118.816 195.419 120.076 197.694 120.243 200.128Z" fill="#EBB531"/>
<path d="M160.019 200.578C160.144 202.394 159.654 204.202 158.611 205.773C157.567 207.344 156.017 208.608 154.157 209.404C152.296 210.201 150.209 210.494 148.159 210.247C146.109 210 144.189 209.224 142.641 208.017C141.092 206.81 139.986 205.226 139.462 203.466C138.937 201.705 139.018 199.848 139.694 198.128C140.37 196.409 141.611 194.904 143.259 193.804C144.908 192.705 146.89 192.06 148.956 191.952C151.723 191.806 154.443 192.633 156.518 194.251C158.592 195.868 159.852 198.144 160.019 200.578Z" fill="#EBB531"/>
<path d="M193.598 217.217C193.723 219.033 193.232 220.841 192.189 222.412C191.145 223.983 189.595 225.247 187.735 226.043C185.874 226.839 183.787 227.133 181.737 226.886C179.688 226.639 177.767 225.862 176.219 224.655C174.671 223.448 173.564 221.865 173.04 220.104C172.515 218.344 172.596 216.487 173.272 214.767C173.948 213.047 175.189 211.543 176.838 210.443C178.486 209.344 180.469 208.699 182.534 208.591C185.3 208.449 188.018 209.277 190.092 210.894C192.165 212.511 193.426 214.784 193.598 217.217Z" fill="#EBB531"/>
<g style="mix-blend-mode:multiply" opacity="0.68">
<mask id="mask25_15_165" style="mask-type:luminance" maskUnits="userSpaceOnUse" x="124" y="188" width="56" height="100">
<path d="M179.311 188.968H124.489V287.069H179.311V188.968Z" fill="white"/>
</mask>
<g mask="url(#mask25_15_165)">
<path d="M168.495 188.968L158.687 207.092C158.032 207.05 157.378 207.193 156.821 207.499C156.264 207.805 155.832 208.259 155.588 208.795V208.863C155.425 209.2 155.34 209.562 155.34 209.928C155.339 210.293 155.422 210.656 155.584 210.993C155.746 211.33 155.984 211.634 156.282 211.889C156.581 212.144 156.935 212.343 157.323 212.474L158.237 212.801C158.051 212.801 157.122 212.651 155.138 215.186L154.766 215.677L154.41 216.181C154.388 216.219 154.362 216.256 154.333 216.29L153.976 216.835C153.934 216.886 153.898 216.941 153.868 216.999C153.744 217.176 153.635 217.366 153.511 217.557L153.356 217.789L153.016 218.361L152.83 218.675L152.489 219.274C152.489 219.397 152.334 219.52 152.272 219.642L151.915 220.269L151.683 220.719L151.327 221.373L151.048 221.904C150.939 222.122 150.815 222.354 150.707 222.586C150.598 222.817 150.49 222.994 150.397 223.199C150.304 223.403 150.164 223.662 150.04 223.907C149.916 224.153 149.824 224.384 149.7 224.616C149.576 224.848 149.467 225.093 149.359 225.338C149.25 225.584 149.111 225.883 148.971 226.156C148.832 226.429 148.754 226.647 148.63 226.892L148.212 227.818C148.104 228.077 147.98 228.323 147.871 228.582C147.763 228.841 147.546 229.304 147.391 229.672L147.081 230.38C146.895 230.83 146.693 231.293 146.492 231.743L146.26 232.315C145.965 232.997 145.686 233.678 145.392 234.4C144.602 236.335 143.672 238.611 142.665 241.132C142.541 241.418 142.432 241.705 142.308 242.004C142.184 242.304 141.998 242.795 141.828 243.176C141.658 243.558 141.58 243.83 141.441 244.171L140.805 245.752C140.712 245.983 140.619 246.215 140.511 246.46C140.309 246.992 140.092 247.537 139.876 248.082C139.767 248.355 139.659 248.627 139.535 248.913L138.915 250.467C138.791 250.78 138.667 251.107 138.527 251.434C138.295 252.034 138.047 252.647 137.799 253.26L137.52 253.955C137.272 254.582 137.024 255.223 136.761 255.863L136.436 256.694C136.203 257.28 135.971 257.894 135.723 258.493L135.351 259.42C135.103 260.074 134.84 260.782 134.592 261.368C134.468 261.655 134.359 261.927 134.251 262.213L133.492 264.148L133.104 265.13C132.867 265.702 132.634 266.288 132.407 266.887L131.926 268.128L131.322 269.654C131.136 270.131 130.95 270.621 130.749 271.098C130.547 271.575 130.33 272.188 130.114 272.733L129.788 273.578C128.053 278.021 126.302 282.518 124.566 286.987C126.116 286.987 127.665 286.892 129.215 286.81H129.246C130.353 286.746 131.431 286.469 132.402 285.998C133.374 285.526 134.215 284.873 134.868 284.083C135.52 283.294 135.966 282.388 136.176 281.43C136.385 280.471 136.352 279.484 136.079 278.539C134.176 271.933 135.262 264.936 139.11 259.021C142.957 253.106 149.264 248.735 156.703 246.828L160.391 239.783C171.486 218.402 168.728 216.494 168.371 216.344L169.301 216.671C169.684 216.815 170.095 216.889 170.511 216.89C170.927 216.89 171.339 216.817 171.722 216.675C172.106 216.532 172.452 216.323 172.742 216.061C173.031 215.798 173.258 215.487 173.407 215.145C173.708 214.513 173.727 213.804 173.46 213.16C173.193 212.516 172.659 211.984 171.966 211.67L179.342 193.015C175.828 191.452 172.205 190.087 168.495 188.927" fill="#2F2F35"/>
</g>
</g>
<g opacity="0.42">
<mask id="mask26_15_165" style="mask-type:luminance" maskUnits="userSpaceOnUse" x="74" y="211" width="10" height="9">
<path d="M83.132 211.561H74.3772V219.261H83.132V211.561Z" fill="white"/>
</mask>
<g mask="url(#mask26_15_165)">
<path d="M83.1163 215.172C83.1696 215.93 82.9663 216.685 82.5321 217.342C82.098 217.998 81.4524 218.527 80.6769 218.861C79.9015 219.195 79.0309 219.319 78.175 219.218C77.3192 219.117 76.5165 218.796 75.8682 218.294C75.22 217.793 74.7553 217.133 74.5328 216.4C74.3104 215.666 74.3401 214.891 74.6182 214.172C74.8963 213.453 75.4104 212.822 76.0955 212.36C76.7806 211.898 77.6061 211.625 78.4677 211.575C79.0423 211.54 79.619 211.605 80.1645 211.768C80.7101 211.93 81.2136 212.186 81.646 212.52C82.0783 212.855 82.4309 213.262 82.6833 213.717C82.9357 214.172 83.0829 214.667 83.1163 215.172Z" fill="white"/>
</g>
</g>
<g opacity="0.42">
<mask id="mask27_15_165" style="mask-type:luminance" maskUnits="userSpaceOnUse" x="109" y="195" width="10" height="9">
<path d="M118.477 195.44H109.722V203.14H118.477V195.44Z" fill="white"/>
</mask>
<g mask="url(#mask27_15_165)">
<path d="M118.399 198.997C118.453 199.758 118.248 200.516 117.812 201.175C117.375 201.835 116.727 202.365 115.947 202.7C115.168 203.035 114.294 203.159 113.434 203.057C112.575 202.954 111.769 202.63 111.119 202.125C110.469 201.62 110.004 200.957 109.783 200.22C109.561 199.482 109.593 198.704 109.875 197.982C110.157 197.261 110.675 196.629 111.365 196.167C112.055 195.705 112.885 195.433 113.751 195.386C114.325 195.354 114.902 195.423 115.446 195.587C115.991 195.752 116.494 196.009 116.925 196.345C117.357 196.68 117.709 197.087 117.962 197.542C118.215 197.997 118.364 198.491 118.399 198.997Z" fill="white"/>
</g>
</g>
<g opacity="0.42">
<mask id="mask28_15_165" style="mask-type:luminance" maskUnits="userSpaceOnUse" x="147" y="194" width="9" height="9">
<path d="M155.898 194.609H147.143V202.308H155.898V194.609Z" fill="white"/>
</mask>
<g mask="url(#mask28_15_165)">
<path d="M155.882 198.22C155.939 198.982 155.737 199.741 155.303 200.402C154.868 201.063 154.221 201.595 153.442 201.932C152.663 202.269 151.789 202.395 150.928 202.295C150.068 202.194 149.261 201.871 148.609 201.367C147.958 200.863 147.491 200.2 147.268 199.462C147.045 198.724 147.076 197.945 147.357 197.223C147.638 196.501 148.157 195.868 148.847 195.405C149.537 194.943 150.367 194.67 151.234 194.623C151.808 194.589 152.384 194.656 152.928 194.819C153.473 194.982 153.976 195.238 154.408 195.572C154.84 195.907 155.192 196.313 155.445 196.767C155.698 197.221 155.847 197.715 155.882 198.22Z" fill="white"/>
</g>
</g>
<g opacity="0.42">
<mask id="mask29_15_165" style="mask-type:luminance" maskUnits="userSpaceOnUse" x="63" y="240" width="10" height="9">
<path d="M72.1614 240.71H63.4065V248.409H72.1614V240.71Z" fill="white"/>
</mask>
<g mask="url(#mask29_15_165)">
<path d="M72.146 244.321C72.1995 245.082 71.9951 245.84 71.5587 246.499C71.1223 247.159 70.4735 247.689 69.6943 248.024C68.9151 248.359 68.0405 248.483 67.181 248.381C66.3216 248.278 65.516 247.954 64.866 247.449C64.216 246.944 63.7509 246.281 63.5294 245.544C63.3079 244.806 63.34 244.028 63.6217 243.306C63.9033 242.585 64.4219 241.953 65.1117 241.491C65.8016 241.029 66.6318 240.757 67.4974 240.71C68.0727 240.677 68.6498 240.744 69.1954 240.908C69.7411 241.071 70.2444 241.329 70.6766 241.664C71.1087 242 71.461 242.408 71.7132 242.863C71.9653 243.319 72.1124 243.815 72.146 244.321Z" fill="white"/>
</g>
</g>
<g opacity="0.42">
<mask id="mask30_15_165" style="mask-type:luminance" maskUnits="userSpaceOnUse" x="94" y="258" width="10" height="8">
<path d="M103.167 258.166H94.4125V265.865H103.167V258.166Z" fill="white"/>
</mask>
<g mask="url(#mask30_15_165)">
<path d="M103.152 261.777C103.202 262.535 102.996 263.288 102.56 263.943C102.123 264.598 101.477 265.124 100.701 265.456C99.9248 265.788 99.0545 265.911 98.1995 265.808C97.3446 265.706 96.5432 265.383 95.8965 264.881C95.2498 264.378 94.7867 263.719 94.5656 262.985C94.3445 262.252 94.3753 261.477 94.6541 260.759C94.9329 260.041 95.4471 259.411 96.1321 258.95C96.8171 258.488 97.6421 258.216 98.5031 258.166C99.0784 258.133 99.6555 258.2 100.201 258.364C100.747 258.528 101.25 258.785 101.682 259.12C102.114 259.456 102.467 259.864 102.719 260.32C102.971 260.776 103.118 261.271 103.152 261.777Z" fill="white"/>
</g>
</g>
<path d="M206.722 183.503C206.722 183.503 220.993 176.689 221.907 166.033C221.813 162.08 220.756 158.191 218.808 154.627L216.856 161.086C216.856 161.086 215.787 150.948 207.559 146.097C199.331 141.245 201.361 142.581 201.361 142.581C201.361 142.581 208.272 150.648 200.586 164.03C192.9 177.412 202.6 182.059 202.6 182.059L206.722 183.503Z" fill="#EBB531"/>
<path d="M205.87 179.156C205.87 179.156 203.282 167.518 209.186 161.263C201.438 169.808 199.889 176.676 201.857 182.222L205.87 179.156Z" fill="#A77E35"/>
<path d="M198.974 181.459C199.579 180.379 200.627 179.54 201.906 179.113C203.186 178.686 204.602 178.701 205.87 179.156H205.963C207.228 179.612 208.251 180.473 208.826 181.564C209.4 182.656 209.485 183.899 209.062 185.043L199.765 210.389L192.683 207.868L185.618 205.333L198.974 181.459Z" fill="white"/>
<path d="M184.455 211.03L196.402 215.309C197.179 215.584 198.048 215.577 198.82 215.292C199.592 215.006 200.204 214.463 200.524 213.782C200.687 213.447 200.773 213.086 200.774 212.72C200.776 212.355 200.694 211.993 200.534 211.656C200.373 211.32 200.137 211.015 199.84 210.759C199.543 210.504 199.191 210.304 198.804 210.171L186.857 205.811C186.474 205.667 186.063 205.593 185.647 205.592C185.231 205.592 184.819 205.665 184.436 205.807C184.053 205.95 183.706 206.159 183.416 206.421C183.127 206.684 182.901 206.995 182.751 207.337V207.405C182.588 207.742 182.503 208.103 182.503 208.469C182.502 208.835 182.585 209.197 182.747 209.534C182.909 209.871 183.147 210.176 183.445 210.431C183.744 210.685 184.098 210.884 184.486 211.016" fill="#CDCCCC"/>
<path d="M185.416 211.371L190.437 213.169L195.457 214.968C195.457 214.968 199.253 215.758 187.492 238.42C178.753 255.25 156.254 297.494 143.3 320.061C143.065 320.51 142.642 320.862 142.119 321.043C141.597 321.225 141.014 321.223 140.493 321.037C139.973 320.851 139.553 320.496 139.323 320.045C139.092 319.594 139.068 319.082 139.256 318.616C147.902 294.496 165.365 250.48 172.478 233.038C182.054 209.599 185.416 211.371 185.416 211.371Z" fill="#2F2F35"/>
<path d="M158.687 292.465C153.093 302.74 147.685 312.497 143.346 320.06C143.111 320.509 142.688 320.861 142.166 321.043C141.643 321.225 141.061 321.223 140.54 321.037C140.019 320.851 139.6 320.495 139.369 320.044C139.139 319.593 139.115 319.082 139.302 318.616C142.2 310.535 146.089 300.233 150.242 289.44L158.687 292.465Z" fill="white"/>
<g style="mix-blend-mode:overlay" opacity="0.75">
<mask id="mask31_15_165" style="mask-type:luminance" maskUnits="userSpaceOnUse" x="156" y="213" width="27" height="60">
<path d="M182.271 213.742H156.874V272.216H182.271V213.742Z" fill="white"/>
</mask>
<g mask="url(#mask31_15_165)">
<path d="M156.874 272.216C175.313 252.143 182.255 213.905 182.286 213.742C180.225 216.358 177.08 221.795 172.478 233.038C169.007 241.555 163.056 256.422 156.874 272.216Z" fill="white"/>
</g>
</g>
<path d="M513.869 225.147L517.138 230.966L524.452 231.893L519.168 236.431L520.408 242.822L513.869 239.797L507.345 242.822L508.585 236.431L503.301 231.893L510.615 230.966L513.869 225.147Z" fill="#9E9D9D"/>
<path d="M607.925 217.012L612.496 225.134L622.692 226.442L615.316 232.765L617.052 241.704L607.925 237.48L598.798 241.704L600.549 232.765L593.173 226.442L603.369 225.134L607.925 217.012Z" fill="#666766"/>
<path d="M579.383 338.825L581.924 343.363L587.626 344.085L583.504 347.614L584.481 352.602L579.383 350.258L574.285 352.602L575.261 347.614L571.139 344.085L576.841 343.363L579.383 338.825Z" fill="#9E9D9D"/>
<path d="M488.55 308.082L493.105 316.218L503.301 317.512L495.925 323.849L497.661 332.788L488.55 328.564L479.423 332.788L481.158 323.849L473.783 317.512L483.978 316.218L488.55 308.082Z" fill="#666766"/>
<path d="M508.043 273.742C510.748 265.22 516.266 257.594 523.898 251.83C531.531 246.066 540.936 242.421 550.924 241.358C560.912 240.294 571.034 241.858 580.011 245.854C588.988 249.849 596.416 256.095 601.356 263.803C606.296 271.511 608.527 280.334 607.765 289.157C607.004 297.979 603.285 306.405 597.078 313.369C590.872 320.333 582.457 325.522 572.897 328.28C563.338 331.038 553.063 331.241 543.372 328.864C530.377 325.672 519.355 318.072 512.73 307.736C506.105 297.399 504.419 285.172 508.043 273.742Z" fill="#EBB531"/>
<g style="mix-blend-mode:multiply" opacity="0.67">
<mask id="mask32_15_165" style="mask-type:luminance" maskUnits="userSpaceOnUse" x="506" y="242" width="87" height="89">
<path d="M592.306 242.549H506.168V330.512H592.306V242.549Z" fill="white"/>
</mask>
<g mask="url(#mask32_15_165)">
<path d="M543.372 328.864C551.899 330.947 560.898 331.037 569.477 329.125C578.056 327.213 585.92 323.365 592.29 317.962C581.417 320.482 569.9 319.762 559.542 315.915C549.183 312.067 540.566 305.309 535.04 296.697C529.513 288.085 527.388 278.105 528.996 268.317C530.604 258.53 535.856 249.487 543.93 242.604C533.15 245.135 523.616 250.712 516.795 258.476C509.973 266.241 506.244 275.762 506.181 285.574C506.117 295.385 509.723 304.943 516.444 312.776C523.164 320.608 532.626 326.28 543.372 328.918" fill="#A77E35"/>
</g>
</g>
<g style="mix-blend-mode:overlay" opacity="0.52">
<mask id="mask33_15_165" style="mask-type:luminance" maskUnits="userSpaceOnUse" x="561" y="241" width="47" height="62">
<path d="M607.925 241.35H561.052V302.141H607.925V241.35Z" fill="white"/>
</mask>
<g mask="url(#mask33_15_165)">
<path d="M570.721 242.686C568.223 242.061 565.674 241.606 563.097 241.323C561.073 247.702 560.545 254.376 561.545 260.939C562.545 267.503 565.052 273.819 568.915 279.504C572.778 285.189 577.914 290.124 584.013 294.008C590.112 297.893 597.046 300.646 604.392 302.1C606.983 296.273 608.158 290.034 607.84 283.784C607.522 277.534 605.719 271.411 602.547 265.812C599.375 260.212 594.904 255.258 589.423 251.27C583.941 247.283 577.57 244.349 570.721 242.658" fill="#FDF5E8"/>
</g>
</g>
<path d="M506.353 282.123C486.613 275.309 474.34 269.231 475.363 265.988C477.067 260.537 514.953 265.157 559.967 276.195C604.981 287.233 640.093 300.587 638.373 305.984C637.335 309.227 623.327 308.886 602.579 305.711" stroke="#666766" stroke-width="2" stroke-miterlimit="10"/>
</g>
</g>
</g>
</g>
<defs>
<clipPath id="clip0_15_165">
<rect width="640" height="577" fill="white"/>
</clipPath>
</defs>
</svg>
