<svg width="33" height="34" viewBox="0 0 33 34" fill="none" xmlns="http://www.w3.org/2000/svg">
<circle cx="16.5" cy="16.564" r="16" fill="#292826" stroke="#F9D342"/>
<path d="M13.5745 10.0713C13.1847 10.0713 12.8038 10.1733 12.4797 10.3645C12.1556 10.5557 11.9029 10.8274 11.7535 11.1454C11.6042 11.4634 11.5649 11.8133 11.6406 12.151C11.7163 12.4887 11.9036 12.799 12.1789 13.0427C12.4541 13.2864 12.805 13.4526 13.1871 13.5202C13.5692 13.5879 13.9655 13.554 14.3258 13.4228C14.6861 13.2916 14.9943 13.069 15.2115 12.7831C15.4286 12.4973 15.545 12.161 15.5459 11.8167C15.5459 11.3545 15.3383 10.9111 14.9687 10.5839C14.5992 10.2567 14.0977 10.0723 13.5745 10.0713ZM13.5745 13.0691C13.294 13.0691 13.0199 12.9957 12.7868 12.8581C12.5536 12.7204 12.3719 12.5248 12.2646 12.296C12.1573 12.0671 12.1292 11.8153 12.1839 11.5724C12.2386 11.3294 12.3736 11.1063 12.5719 10.9311C12.7702 10.756 13.0228 10.6367 13.2979 10.5884C13.5729 10.54 13.858 10.5648 14.117 10.6596C14.3761 10.7544 14.5975 10.915 14.7533 11.1209C14.9091 11.3269 14.9923 11.569 14.9923 11.8167C14.9923 12.1489 14.8429 12.4674 14.577 12.7023C14.3111 12.9372 13.9505 13.0691 13.5745 13.0691Z" fill="#F9D342"/>
<path d="M23.8822 12.3776C23.9539 12.3733 24.022 12.3482 24.0757 12.306C24.1268 12.2588 24.1557 12.1963 24.1568 12.1311C24.1541 12.0661 24.1254 12.0041 24.0757 11.9561C24.0208 11.9139 23.9505 11.8906 23.8777 11.8906C23.8049 11.8906 23.7346 11.9139 23.6797 11.9561C23.6316 12.005 23.6031 12.0665 23.5986 12.1311C23.6017 12.1959 23.6304 12.2578 23.6797 12.306C23.7358 12.3498 23.8073 12.3751 23.8822 12.3776Z" fill="#F9D342"/>
<path d="M22.9279 12.878C22.9602 12.8626 22.9886 12.8417 23.0116 12.8165C23.0345 12.7913 23.0516 12.7623 23.0616 12.7311C23.0717 12.7 23.0746 12.6674 23.0702 12.6353C23.0658 12.6032 23.0541 12.5721 23.0359 12.544C23.0182 12.5161 22.9944 12.4915 22.9659 12.4717C22.9374 12.4519 22.9048 12.4372 22.8699 12.4286C22.7994 12.411 22.724 12.419 22.6601 12.4506C22.5962 12.4822 22.5492 12.535 22.5294 12.5972C22.5095 12.6595 22.5185 12.7262 22.5543 12.7826C22.5911 12.8375 22.6502 12.878 22.7197 12.8958C22.7891 12.9135 22.8636 12.9072 22.9279 12.878Z" fill="#F9D342"/>
<path d="M21.7078 13.4663C21.7446 13.4674 21.7813 13.4616 21.8155 13.4493C21.8496 13.4369 21.8804 13.4184 21.9058 13.3947C21.9539 13.3494 21.9812 13.2899 21.9823 13.2278C21.9817 13.1632 21.9545 13.101 21.9058 13.0528C21.8668 13.0181 21.8169 12.9944 21.7626 12.9848C21.7083 12.9752 21.652 12.9801 21.6008 12.9988C21.5496 13.0176 21.5059 13.0494 21.4753 13.0901C21.4446 13.1309 21.4284 13.1788 21.4287 13.2278C21.4297 13.2907 21.4588 13.3507 21.5097 13.3947C21.5346 13.419 21.5653 13.438 21.5995 13.4504C21.6338 13.4628 21.6708 13.4682 21.7078 13.4663Z" fill="#F9D342"/>
<path d="M25.2724 9.912L19.4932 12.8184L17.3237 11.729C17.3237 10.8496 16.9282 10.0061 16.2242 9.38429C15.5203 8.76244 14.5655 8.41309 13.5699 8.41309C12.5743 8.41309 11.6195 8.76244 10.9155 9.38429C10.2116 10.0061 9.81606 10.8496 9.81606 11.729L7.51606 12.878C7.47276 12.9001 7.43697 12.932 7.41242 12.9705C7.38788 13.009 7.37548 13.0526 7.37653 13.0967V24.3207C7.37662 24.3636 7.38958 24.4057 7.41409 24.4427C7.4386 24.4797 7.47378 24.5103 7.51606 24.5314C7.55695 24.5523 7.60395 24.562 7.65109 24.5592C7.69968 24.5623 7.74822 24.5526 7.79062 24.5314L13.5744 21.625L19.3536 24.5354C19.3865 24.5393 19.4198 24.5393 19.4527 24.5354H19.5472C19.5472 24.5354 19.5472 24.5354 19.5697 24.5354L25.484 21.5614C25.5264 21.5384 25.5614 21.5063 25.5858 21.468C25.6102 21.4298 25.6232 21.3866 25.6235 21.3427V10.1227C25.6239 10.0798 25.6114 10.0376 25.5872 10.0003C25.563 9.96307 25.5281 9.93215 25.486 9.91072C25.4439 9.88929 25.3961 9.87812 25.3475 9.87835C25.2989 9.87857 25.2513 9.89019 25.2094 9.912H25.2724ZM7.93465 13.2398L9.85657 12.2737C9.95301 12.8325 10.1316 13.3778 10.3877 13.8959L7.93465 15.1324V13.2398ZM7.93465 15.693L10.6082 14.3491C11.3054 15.616 12.1502 16.8152 13.1288 17.9274L7.93465 20.5316V15.693ZM13.2998 21.1996L10.9368 22.3924C11.1439 21.6648 11.7425 20.3726 13.2998 20.2056V21.1996ZM13.2998 19.7086C10.9548 19.9114 10.3967 22.1459 10.2932 22.7065L7.93465 23.8992V21.1161L13.2998 18.4204V19.7086ZM10.3697 11.7886C10.3697 11.0378 10.7073 10.3178 11.3083 9.78692C11.9093 9.25603 12.7244 8.95778 13.5744 8.95778C14.4243 8.95778 15.2394 9.25603 15.8404 9.78692C16.4414 10.3178 16.7791 11.0378 16.7791 11.7886C16.7791 13.7766 14.326 16.7545 13.5744 17.6292C12.8227 16.7545 10.3697 13.7726 10.3697 11.7886ZM14.0245 17.9195C14.998 16.8049 15.841 15.606 16.5405 14.3412L17.8908 15.0171C17.7738 15.6055 17.2112 17.6491 15.8204 18.8419L14.0245 17.9195ZM15.3748 19.156C14.9323 19.4451 14.4099 19.6236 13.8624 19.6728V18.4006L15.3748 19.156ZM19.2141 23.8913L13.8534 21.1996V20.1579C14.6043 20.1041 15.3194 19.8519 15.9059 19.4343L19.2141 21.0962V23.8913ZM19.2141 20.5316L16.338 19.0844C17.6568 17.8837 18.2239 16.0587 18.3859 15.2636L19.2141 15.6612V20.5316ZM19.7722 23.8913V21.1081L22.4728 19.7404L20.6724 23.4539L19.7722 23.8913ZM25.1329 21.1996L21.4736 23.0404L25.1329 15.518V21.1996ZM25.1329 14.2815L22.8419 18.981L19.7722 20.5316V15.693L25.1329 12.9933V14.2815ZM25.1329 12.4327L19.4932 15.2636L16.7611 13.8879C17.0172 13.3699 17.1958 12.8246 17.2922 12.2657L19.3536 13.3074C19.3961 13.3291 19.4442 13.3404 19.4932 13.3404C19.5422 13.3404 19.5903 13.3291 19.6327 13.3074L25.1329 10.5243V12.4327Z" fill="#F9D342"/>
</svg>
