<svg width="33" height="34" viewBox="0 0 33 34" fill="none" xmlns="http://www.w3.org/2000/svg">
<circle cx="16.5" cy="17.064" r="16" fill="#292826" stroke="#F9D342"/>
<path d="M15.2358 18.636C13.6512 17.0132 13.2934 15.3904 13.2127 14.7403C13.1901 14.5605 13.2505 14.3802 13.3761 14.2525L14.6584 12.9398C14.8471 12.7468 14.8805 12.4459 14.7391 12.2143L12.6974 8.96761C12.541 8.7112 12.2198 8.61865 11.9558 8.75392L8.67814 10.3348C8.46463 10.4424 8.33904 10.6748 8.36328 10.9172C8.53502 12.5881 9.24631 16.6954 13.1878 20.7322C17.1292 24.7689 21.1393 25.497 22.7717 25.6729C23.0085 25.6977 23.2354 25.5691 23.3405 25.3504L24.8841 21.9938C25.0157 21.724 24.926 21.3959 24.6766 21.2355L21.5063 19.1451C21.2803 19.0002 20.9865 19.0342 20.7979 19.2272L19.5161 20.5404C19.3914 20.6691 19.2154 20.7309 19.0398 20.7078C18.405 20.6252 16.8204 20.2587 15.2358 18.636V18.636Z" fill="#F9D342"/>
<path d="M21.528 17.7622C21.2119 17.7622 20.9556 17.4997 20.9556 17.1759C20.9529 14.7487 19.0322 12.7817 16.662 12.779C16.3459 12.779 16.0896 12.5165 16.0896 12.1927C16.0896 11.8689 16.3459 11.6064 16.662 11.6064C19.6642 11.6098 22.0972 14.1014 22.1005 17.1759C22.1005 17.4997 21.8442 17.7622 21.528 17.7622Z" fill="#F9D342"/>
<path d="M24.3904 17.7619C24.0742 17.7619 23.8179 17.4994 23.8179 17.1756C23.8135 13.1302 20.6123 9.85185 16.662 9.84733C16.3459 9.84733 16.0896 9.58485 16.0896 9.26107C16.0896 8.93728 16.3459 8.6748 16.662 8.6748C21.2443 8.67997 24.9578 12.4829 24.9628 17.1756C24.9628 17.3311 24.9025 17.4802 24.7952 17.5902C24.6878 17.7001 24.5422 17.7619 24.3904 17.7619Z" fill="#F9D342"/>
</svg>
