<svg width="63" height="61" viewBox="0 0 63 61" fill="none" xmlns="http://www.w3.org/2000/svg">
<path d="M31.5 61C48.897 61 63 47.3447 63 30.5C63 13.6553 48.897 0 31.5 0C14.103 0 0 13.6553 0 30.5C0 47.3447 14.103 61 31.5 61Z" fill="#292826"/>
<path d="M41.8363 9.65332H34.9298C30.8313 9.65332 26.2726 11.3319 26.2726 17.1173C26.2926 19.1331 26.2726 21.0637 26.2726 23.2364H21.5311V30.5838H26.4193V51.7356H35.4016V30.4442H41.3302L41.8666 23.2158H35.2468C35.2468 23.2158 35.2616 20.0003 35.2468 19.0665C35.2468 16.7803 37.6897 16.9112 37.8366 16.9112C38.9991 16.9112 41.2594 16.9145 41.8397 16.9112V9.65332H41.8363Z" fill="#F9D342"/>
</svg>
