<svg width="32" height="32" viewBox="0 0 32 32" fill="none" xmlns="http://www.w3.org/2000/svg">
<path d="M16 32C24.8366 32 32 24.8366 32 16C32 7.16344 24.8366 0 16 0C7.16344 0 0 7.16344 0 16C0 24.8366 7.16344 32 16 32Z" fill="white"/>
<path d="M21.2502 5.06396H17.7421C15.6603 5.06396 13.3448 5.94455 13.3448 8.97948C13.355 10.037 13.3448 11.0497 13.3448 12.1895H10.9364V16.0439H13.4193V27.1399H17.9817V15.9707H20.9931L21.2656 12.1787H17.9031C17.9031 12.1787 17.9106 10.4919 17.9031 10.002C17.9031 8.8027 19.144 8.87138 19.2186 8.87138C19.8091 8.87138 20.9572 8.87311 21.2519 8.87138V5.06396H21.2502Z" fill="#F9D342"/>
</svg>
