<svg width="33" height="34" viewBox="0 0 33 34" fill="none" xmlns="http://www.w3.org/2000/svg">
<circle cx="16.5" cy="17.064" r="16" fill="#292826" stroke="#F9D342"/>
<path d="M10.3947 25.5373C9.5872 25.2982 8.93762 24.6579 8.66539 23.8321L8.55614 23.5007L8.54391 20.5255C8.53712 18.8892 8.5427 17.4885 8.55614 17.4126C8.5912 17.2174 8.75059 17.0785 8.93935 17.0785C9.0958 17.0785 9.66276 17.3739 14.6724 20.0665C16.3748 20.9814 16.4832 21.0333 16.6913 21.035C16.9048 21.0364 17.0186 20.9792 20.6237 19.0529C24.0956 17.1976 24.3466 17.0704 24.4956 17.0909C24.5832 17.1049 24.698 17.1551 24.7508 17.2053L24.8469 17.2974L24.8463 20.337C24.8456 23.7168 24.8504 23.6443 24.5766 24.2182C24.3716 24.6477 23.9016 25.1311 23.4876 25.3388C22.9021 25.6323 23.3682 25.6137 16.6729 25.6105C11.0731 25.6105 10.6172 25.5966 10.3947 25.5366L10.3947 25.5373ZM14.7757 18.4124C14.3267 18.1768 13.945 17.9692 13.9273 17.9511C13.8921 17.9148 18.5916 15.3375 18.8129 15.2716C19.1413 15.1739 19.5737 15.3734 19.7239 15.6915C19.8627 15.986 19.8262 16.3344 19.6277 16.6093C19.56 16.7028 19.044 17.0036 17.6019 17.789C16.5376 18.3687 15.65 18.8425 15.6294 18.8418C15.6087 18.8413 15.2245 18.6479 14.7756 18.4124H14.7757ZM12.0386 16.9913C11.5575 16.7427 11.1797 16.5249 11.199 16.5073C11.2318 16.4781 17.0531 13.3018 17.4505 13.0968C17.913 12.8581 18.483 13.1107 18.613 13.6007C18.6994 13.9303 18.5604 14.3248 18.2933 14.5079C18.1663 14.5944 12.9446 17.4511 12.9223 17.4456C12.9168 17.4444 12.5197 17.24 12.0386 16.9913ZM21.8569 16.4117C21.814 16.3377 21.2598 15.281 20.6254 14.0623C19.359 11.6292 19.3072 11.5491 18.8537 11.3232C18.6147 11.2046 18.555 11.1921 18.2104 11.1907C17.9688 11.19 17.7797 11.2116 17.6907 11.2492C17.6138 11.2813 15.8148 12.2592 13.6929 13.4214C11.5711 14.5834 9.78919 15.5521 9.73312 15.5737C9.64684 15.6071 9.5729 15.5876 9.25109 15.4029C8.94508 15.2336 8.85782 15.1642 8.8033 15.0469C8.65967 14.7376 8.75561 14.4905 9.20705 14.0073C9.44992 13.7473 10.1417 13.2056 12.4736 11.4491C14.1007 10.2235 15.5129 9.18075 15.6119 9.13179C15.9127 8.98297 16.2559 8.91253 16.6771 8.91309C17.1223 8.91379 17.4806 8.98701 17.7686 9.13709C17.8766 9.19289 19.1582 10.1398 20.6166 11.2406C22.0751 12.3412 23.419 13.3526 23.6031 13.488C24.0272 13.7999 24.4112 14.2239 24.5707 14.5564C24.7098 14.8466 24.7057 14.9993 24.5549 15.1393C24.4758 15.2133 22.0151 16.5453 21.9585 16.5453C21.9449 16.5453 21.8998 16.4853 21.8569 16.4114L21.8569 16.4117Z" fill="#F9D342"/>
</svg>
