<svg width="32" height="32" viewBox="0 0 32 32" fill="none" xmlns="http://www.w3.org/2000/svg">
<rect x="4.36258" y="6.52539" width="22.1039" height="20.2957" fill="#F9D342"/>
<path d="M20.7681 8.51172H11.2307C9.70834 8.51172 8.46981 9.75024 8.46981 11.2725V20.81C8.46981 22.3323 9.70834 23.5712 11.2307 23.5712H20.7681C22.2904 23.5712 23.5293 22.3326 23.5293 20.81V11.2725C23.5293 9.75024 22.2908 8.51172 20.7681 8.51172ZM15.9994 20.9989C13.266 20.9989 11.0421 18.775 11.0421 16.0413C11.0421 13.3079 13.266 11.084 15.9994 11.084C18.7331 11.084 20.9571 13.3079 20.9571 16.0413C20.9571 18.7746 18.7328 20.9989 15.9994 20.9989ZM21.1164 12.1089C20.4694 12.1089 19.9432 11.5827 19.9432 10.936C19.9432 10.2893 20.4694 9.76308 21.1164 9.76308C21.7632 9.76308 22.2894 10.2893 22.2894 10.936C22.2894 11.5827 21.7632 12.1089 21.1164 12.1089Z" fill="white"/>
<path d="M16 0C7.1638 0 0 7.16376 0 15.9999C0 24.8361 7.1638 31.9998 16 31.9998C24.8362 31.9998 32 24.8361 32 15.9999C32 7.16376 24.8362 0 16 0ZM25.6245 20.8118C25.6245 23.4895 23.4465 25.6675 20.7687 25.6675H11.2313C8.55384 25.6675 6.37554 23.4895 6.37554 20.8118V11.2743C6.37554 8.59694 8.55384 6.41865 11.2313 6.41865H20.7687C23.4465 6.41865 25.6245 8.59694 25.6245 11.2743V20.8118Z" fill="white"/>
<path d="M15.9534 13.3066C14.3754 13.3066 13.0906 14.5908 13.0906 16.1687C13.0906 17.7474 14.3754 19.0319 15.9534 19.0319C17.532 19.0319 18.8158 17.7474 18.8158 16.1687C18.8158 14.5912 17.5317 13.3066 15.9534 13.3066Z" fill="white"/>
</svg>
