<svg width="63" height="61" viewBox="0 0 63 61" fill="none" xmlns="http://www.w3.org/2000/svg">
<path d="M40.8872 16.2295H22.1103C19.1133 16.2295 16.6749 18.5904 16.6749 21.4924V39.6732C16.6749 42.5751 19.1133 44.9367 22.1103 44.9367H40.8872C43.8843 44.9367 46.3233 42.5757 46.3233 39.6732V21.4924C46.3233 18.5904 43.885 16.2295 40.8872 16.2295ZM31.4988 40.0333C26.1174 40.0333 21.739 35.794 21.739 30.5828C21.739 25.3722 26.1174 21.1328 31.4988 21.1328C36.8809 21.1328 41.2592 25.3722 41.2592 30.5828C41.2592 35.7933 36.8802 40.0333 31.4988 40.0333ZM41.573 23.0867C40.299 23.0867 39.2631 22.0836 39.2631 20.8508C39.2631 19.618 40.299 18.6149 41.573 18.6149C42.8462 18.6149 43.8822 19.618 43.8822 20.8508C43.8822 22.0836 42.8462 23.0867 41.573 23.0867Z" fill="#292826"/>
<path d="M31.5 0C14.1037 0 0 13.656 0 30.5C0 47.344 14.1037 61 31.5 61C48.8963 61 63 47.344 63 30.5C63 13.656 48.8963 0 31.5 0ZM50.4481 39.6726C50.4481 44.7771 46.1603 48.9289 40.8884 48.9289H22.1116C16.8404 48.9289 12.5518 44.7771 12.5518 39.6726V21.4918C12.5518 16.388 16.8404 12.2356 22.1116 12.2356H40.8884C46.1603 12.2356 50.4481 16.388 50.4481 21.4918V39.6726Z" fill="#292826"/>
<path d="M31.4082 25.3677C28.3016 25.3677 25.772 27.8156 25.772 30.8235C25.772 33.8328 28.3016 36.2815 31.4082 36.2815C34.5161 36.2815 37.0436 33.8328 37.0436 30.8235C37.0436 27.8163 34.5154 25.3677 31.4082 25.3677Z" fill="#292826"/>
</svg>
