<svg width="32" height="32" viewBox="0 0 32 32" fill="none" xmlns="http://www.w3.org/2000/svg">
<rect width="32" height="32" rx="16" fill="white"/>
<path d="M8.54427 10.0234C8.54427 9.10877 9.22972 8.42188 10.3724 8.42188C11.4004 8.42188 12.0859 9.10877 12.0859 10.0234C12.0859 10.9381 11.4005 11.6224 10.2578 11.6224C9.22981 11.6224 8.54427 10.9381 8.54427 10.0234Z" fill="#F9D342"/>
<path d="M8.63541 22.6667V13.3333H12V22.6667H8.63541Z" fill="#F9D342"/>
<path d="M14.776 22.6667V13.3333H18.1406V14.6354C18.574 13.8754 19.4423 13.3333 21.0703 13.3333C22.6983 13.3333 24 14.6358 24 17.5651V22.6667H20.7448V17.5651C20.7448 16.1544 19.8748 15.8281 19.5495 15.8281C19.2241 15.8281 18.1406 16.0464 18.1406 17.5651V22.6667H14.776Z" fill="#F9D342"/>
</svg>
