<svg width="63" height="61" viewBox="0 0 63 61" fill="none" xmlns="http://www.w3.org/2000/svg">
<rect width="63" height="61" rx="30.5" fill="#292826"/>
<path d="M16.8215 19.1072C16.8215 17.3636 18.171 16.0542 20.4207 16.0542C22.4445 16.0542 23.7942 17.3636 23.7942 19.1072C23.7942 20.8508 22.4447 22.1552 20.1951 22.1552C18.1712 22.1552 16.8215 20.8508 16.8215 19.1072Z" fill="#F9D342"/>
<path d="M17.001 43.2083V25.4167H23.625V43.2083H17.001Z" fill="#F9D342"/>
<path d="M29.0903 43.2083V25.4167H35.7144V27.8988C36.5675 26.45 38.2771 25.4167 41.4822 25.4167C44.6873 25.4167 47.25 27.8994 47.25 33.4835V43.2083H40.8413V33.4835C40.8413 30.7944 39.1285 30.1724 38.488 30.1724C37.8475 30.1724 35.7144 30.5885 35.7144 33.4835V43.2083H29.0903Z" fill="#F9D342"/>
</svg>
