<svg width="20" height="14" viewBox="0 0 20 14" fill="none" xmlns="http://www.w3.org/2000/svg">
<path d="M16.9024 9.39283L13.6636 5.58486L16.5403 3.94361C16.8214 3.7833 16.9193 3.42541 16.759 3.14435C16.5986 2.86326 16.2406 2.76537 15.9597 2.92572C15.7191 3.06295 10.2677 6.17299 10 6.32576C9.73095 6.17225 4.27829 3.06146 4.04036 2.92572C3.75927 2.76541 3.40149 2.86318 3.24106 3.14435C3.08075 3.42541 3.17856 3.78326 3.4597 3.94361L6.33645 5.58486L3.09763 9.39283C2.88798 9.63936 2.91782 10.0091 3.16434 10.2188C3.41083 10.4285 3.78075 10.3985 3.99028 10.1521L7.3722 6.1758L9.70966 7.50935C9.88962 7.61201 10.1104 7.61197 10.2903 7.50935L12.6278 6.1758L16.0097 10.1521C16.2194 10.3987 16.5893 10.4283 16.8356 10.2188C17.0822 10.0091 17.112 9.63936 16.9024 9.39283Z" fill="#F9D342"/>
<path d="M18.2422 0.164062H1.75781C0.788555 0.164062 0 0.952617 0 1.92188V12.0781C0 13.0474 0.788555 13.8359 1.75781 13.8359H18.2422C19.2114 13.8359 20 13.0474 20 12.0781V1.92188C20 0.952617 19.2114 0.164062 18.2422 0.164062ZM18.8281 12.0781C18.8281 12.4012 18.5653 12.6641 18.2422 12.6641H1.75781C1.43473 12.6641 1.17188 12.4012 1.17188 12.0781V1.92188C1.17188 1.59879 1.43473 1.33594 1.75781 1.33594H18.2422C18.5653 1.33594 18.8281 1.59879 18.8281 1.92188V12.0781Z" fill="#F9D342"/>
</svg>
