<svg width="52" height="26" viewBox="0 0 52 26" fill="none" xmlns="http://www.w3.org/2000/svg">
<path d="M0 24.9866V0.986572H13.0442C15.095 0.986572 16.7693 1.34682 18.0673 2.06732C19.3911 2.78782 20.3776 3.79403 21.0265 5.08595C21.6755 6.35303 22 7.83129 22 9.52073C22 11.1356 21.5717 12.5642 20.715 13.8064C19.8844 15.0238 18.7681 15.9555 17.3664 16.6015C17.6519 16.8251 17.8985 17.0984 18.1062 17.4214C18.3139 17.7195 18.5475 18.1419 18.8071 18.6884L21.6885 24.9866H14.0566L11.4088 19.2102C11.2012 18.763 10.9416 18.4524 10.6301 18.2785C10.3445 18.0797 9.9292 17.9804 9.38407 17.9804H7.32035V24.9866H0ZM7.32035 12.6139H11.1752C12.2395 12.6139 13.0572 12.353 13.6283 11.8313C14.2254 11.2847 14.5239 10.5145 14.5239 9.52073C14.5239 7.40893 13.4855 6.35303 11.4088 6.35303H7.32035V12.6139Z" fill="#999691"/>
<path d="M0 25.0132V2.21356H11.86C13.7246 2.21356 15.2469 2.55579 16.427 3.24025C17.6308 3.92471 18.5276 4.8806 19.1177 6.1079C19.7077 7.31161 20.0028 8.71593 20.0028 10.3209C20.0028 11.855 19.6133 13.2121 18.8345 14.3922C18.0792 15.5487 17.0643 16.4338 15.7898 17.0475C16.0494 17.2599 16.2736 17.5195 16.4625 17.8263C16.6513 18.1096 16.8637 18.5108 17.0997 19.03L19.7195 25.0132H12.7805L10.3731 19.5257C10.1843 19.1008 9.94828 18.8058 9.66505 18.6406C9.40543 18.4518 9.02779 18.3574 8.53215 18.3574H6.65579V25.0132H0ZM6.65579 13.2593H10.1607C11.1284 13.2593 11.8718 13.0115 12.3911 12.5159C12.9339 11.9966 13.2054 11.265 13.2054 10.3209C13.2054 8.3147 12.2613 7.31161 10.3731 7.31161H6.65579V13.2593Z" fill="#F9D342"/>
<path d="M27.3761 20.5784C26.9331 20.5928 26.555 20.6288 26.2417 20.6864C25.932 20.7404 25.6781 20.8125 25.4801 20.9025C25.2856 20.9925 25.1434 21.0988 25.0533 21.2212C24.9669 21.3436 24.9237 21.4805 24.9237 21.6317C24.9237 21.7758 24.9471 21.9 24.9939 22.0044C25.0407 22.1089 25.1037 22.1953 25.183 22.2637C25.2658 22.3285 25.3612 22.3772 25.4693 22.4096C25.5809 22.4384 25.6997 22.4528 25.8258 22.4528C25.995 22.4528 26.1499 22.4366 26.2903 22.4042C26.4308 22.3681 26.5622 22.3177 26.6846 22.2529C26.8107 22.1881 26.9295 22.1107 27.0412 22.0206C27.1564 21.9306 27.268 21.828 27.3761 21.7127V20.5784ZM24.2701 18.3421C24.5726 18.0504 24.8985 17.8325 25.2478 17.6885C25.5971 17.5444 25.9842 17.4724 26.4092 17.4724C26.7153 17.4724 26.9871 17.5228 27.2248 17.6237C27.4625 17.7245 27.6624 17.8649 27.8244 18.045C27.9865 18.225 28.1089 18.4429 28.1917 18.6986C28.2745 18.9543 28.316 19.2352 28.316 19.5413V23.0416H27.8892C27.7956 23.0416 27.7236 23.0272 27.6732 22.9983C27.6227 22.9659 27.5831 22.9047 27.5543 22.8147L27.4463 22.2961C27.3022 22.4294 27.1618 22.5482 27.0249 22.6526C26.8881 22.7535 26.7441 22.8399 26.5928 22.9119C26.4416 22.9803 26.2795 23.0326 26.1067 23.0686C25.9374 23.1082 25.7483 23.128 25.5395 23.128C25.327 23.128 25.1272 23.0992 24.9399 23.0416C24.7526 22.9803 24.5888 22.8903 24.4483 22.7715C24.3115 22.6526 24.2017 22.5032 24.1188 22.3231C24.0396 22.1395 24 21.9234 24 21.6749C24 21.4589 24.0594 21.2518 24.1783 21.0537C24.2971 20.8521 24.4898 20.6738 24.7562 20.519C25.0227 20.3641 25.3702 20.2381 25.7988 20.1409C26.2273 20.04 26.7531 19.9824 27.3761 19.968V19.5413C27.3761 19.1163 27.2842 18.7958 27.1006 18.5798C26.9169 18.3601 26.6486 18.2503 26.2957 18.2503C26.058 18.2503 25.8582 18.2809 25.6961 18.3421C25.5377 18.3997 25.399 18.4663 25.2802 18.5419C25.165 18.614 25.0641 18.6806 24.9777 18.7418C24.8949 18.7994 24.8121 18.8282 24.7292 18.8282C24.6644 18.8282 24.6086 18.812 24.5618 18.7796C24.515 18.7436 24.4753 18.7004 24.4429 18.65L24.2701 18.3421Z" fill="white"/>
<path d="M33.4429 19.7087C33.4429 19.4854 33.4105 19.282 33.3457 19.0983C33.2845 18.9111 33.1926 18.7508 33.0702 18.6176C32.9514 18.4807 32.8055 18.3763 32.6327 18.3043C32.4598 18.2286 32.2636 18.1908 32.0439 18.1908C31.5829 18.1908 31.2174 18.3259 30.9473 18.596C30.6809 18.8624 30.5152 19.2334 30.4504 19.7087H33.4429ZM34.2208 22.2745C34.1019 22.4186 33.9597 22.5446 33.794 22.6526C33.6284 22.7571 33.4501 22.8435 33.2593 22.9119C33.072 22.9803 32.8775 23.0308 32.6759 23.0632C32.4742 23.0992 32.2744 23.1172 32.0763 23.1172C31.6982 23.1172 31.3489 23.0542 31.0284 22.9281C30.7115 22.7985 30.436 22.6112 30.2019 22.3663C29.9714 22.1179 29.7914 21.8118 29.6617 21.4481C29.5321 21.0843 29.4673 20.6666 29.4673 20.1949C29.4673 19.8131 29.5249 19.4566 29.6401 19.1253C29.759 18.794 29.9282 18.5077 30.1479 18.2665C30.3676 18.0216 30.6358 17.8307 30.9527 17.6939C31.2696 17.5534 31.6262 17.4832 32.0223 17.4832C32.35 17.4832 32.6525 17.539 32.9298 17.6507C33.2107 17.7587 33.4519 17.9172 33.6536 18.126C33.8589 18.3313 34.0191 18.587 34.1343 18.8931C34.2496 19.1956 34.3072 19.5413 34.3072 19.9302C34.3072 20.0814 34.291 20.1823 34.2586 20.2327C34.2262 20.2831 34.1649 20.3083 34.0749 20.3083H30.418C30.4288 20.654 30.4756 20.9547 30.5584 21.2104C30.6448 21.4661 30.7637 21.6803 30.9149 21.8532C31.0662 22.0224 31.2462 22.1503 31.4551 22.2367C31.664 22.3195 31.898 22.3609 32.1573 22.3609C32.3986 22.3609 32.6057 22.3339 32.7785 22.2799C32.955 22.2223 33.1062 22.1611 33.2323 22.0963C33.3583 22.0314 33.4627 21.972 33.5456 21.918C33.632 21.8604 33.7058 21.8316 33.767 21.8316C33.8463 21.8316 33.9075 21.8622 33.9507 21.9234L34.2208 22.2745Z" fill="white"/>
<path d="M37.395 20.3677C37.5895 20.3677 37.7605 20.3407 37.9082 20.2867C38.0558 20.2327 38.1801 20.1571 38.2809 20.0598C38.3817 19.9626 38.4574 19.8474 38.5078 19.7141C38.5582 19.5773 38.5834 19.4278 38.5834 19.2658C38.5834 18.9309 38.4808 18.6644 38.2755 18.4663C38.0738 18.2683 37.7803 18.1692 37.395 18.1692C37.0061 18.1692 36.709 18.2683 36.5037 18.4663C36.3021 18.6644 36.2013 18.9309 36.2013 19.2658C36.2013 19.4278 36.2265 19.5773 36.2769 19.7141C36.3309 19.8474 36.4083 19.9626 36.5091 20.0598C36.61 20.1571 36.7342 20.2327 36.8819 20.2867C37.0295 20.3407 37.2006 20.3677 37.395 20.3677ZM39.129 23.3387C39.129 23.2054 39.0912 23.0974 39.0155 23.0146C38.9399 22.9317 38.8373 22.8669 38.7076 22.8201C38.5816 22.7733 38.434 22.7409 38.2647 22.7229C38.0954 22.7013 37.9154 22.6851 37.7245 22.6742C37.5373 22.6634 37.3464 22.6526 37.1519 22.6418C36.9575 22.631 36.7702 22.613 36.5902 22.5878C36.3885 22.6814 36.2229 22.8003 36.0932 22.9443C35.9672 23.0848 35.9042 23.2504 35.9042 23.4413C35.9042 23.5637 35.9348 23.6772 35.996 23.7816C36.0608 23.8896 36.158 23.9815 36.2877 24.0571C36.4173 24.1363 36.5794 24.1975 36.7738 24.2407C36.9719 24.2876 37.2042 24.311 37.4706 24.311C37.7299 24.311 37.9622 24.2876 38.1675 24.2407C38.3727 24.1939 38.5456 24.1273 38.686 24.0409C38.8301 23.9544 38.9399 23.8518 39.0155 23.733C39.0912 23.6141 39.129 23.4827 39.129 23.3387ZM40.1067 17.7857V18.1422C40.1067 18.2611 40.0311 18.3367 39.8798 18.3691L39.2586 18.4501C39.381 18.6878 39.4423 18.9507 39.4423 19.2388C39.4423 19.5053 39.39 19.7483 39.2856 19.968C39.1848 20.1841 39.0443 20.3695 38.8643 20.5244C38.6842 20.6792 38.4682 20.7981 38.2161 20.8809C37.964 20.9637 37.6903 21.0051 37.395 21.0051C37.1393 21.0051 36.8981 20.9745 36.6712 20.9133C36.556 20.9853 36.4677 21.0627 36.4065 21.1456C36.3453 21.2248 36.3147 21.3058 36.3147 21.3886C36.3147 21.5183 36.3669 21.6173 36.4713 21.6857C36.5794 21.7506 36.7198 21.7974 36.8927 21.8262C37.0655 21.855 37.2618 21.873 37.4815 21.8802C37.7047 21.8874 37.9316 21.9 38.1621 21.918C38.3961 21.9324 38.623 21.9594 38.8427 21.999C39.0659 22.0386 39.264 22.1035 39.4369 22.1935C39.6097 22.2835 39.7484 22.4078 39.8528 22.5662C39.9608 22.7247 40.0148 22.9299 40.0148 23.182C40.0148 23.4161 39.9554 23.6429 39.8366 23.8626C39.7214 24.0823 39.5539 24.2768 39.3342 24.446C39.1146 24.6189 38.8445 24.7557 38.524 24.8565C38.2071 24.961 37.8488 25.0132 37.449 25.0132C37.0493 25.0132 36.7 24.9736 36.4011 24.8943C36.1022 24.8151 35.8537 24.7089 35.6557 24.5756C35.4576 24.4424 35.3082 24.2876 35.2073 24.1111C35.1101 23.9382 35.0615 23.7564 35.0615 23.5655C35.0615 23.2954 35.1461 23.0668 35.3154 22.8795C35.4846 22.6923 35.7169 22.5428 36.0122 22.4312C35.8501 22.3591 35.7205 22.2637 35.6233 22.1449C35.5296 22.0224 35.4828 21.8586 35.4828 21.6533C35.4828 21.5741 35.4972 21.4931 35.526 21.4102C35.5548 21.3238 35.5981 21.2392 35.6557 21.1564C35.7169 21.0699 35.7907 20.9889 35.8771 20.9133C35.9636 20.8377 36.0644 20.771 36.1796 20.7134C35.9096 20.5622 35.6989 20.3623 35.5476 20.1138C35.3964 19.8618 35.3208 19.5701 35.3208 19.2388C35.3208 18.9723 35.3712 18.731 35.472 18.5149C35.5765 18.2953 35.7205 18.1098 35.9042 17.9586C36.0878 17.8037 36.3057 17.6849 36.5578 17.6021C36.8134 17.5192 37.0925 17.4778 37.395 17.4778C37.6327 17.4778 37.8542 17.5048 38.0594 17.5588C38.2647 17.6093 38.452 17.6849 38.6212 17.7857H40.1067Z" fill="white"/>
<path d="M44.0665 20.5784C43.6235 20.5928 43.2454 20.6288 42.9321 20.6864C42.6224 20.7404 42.3685 20.8125 42.1705 20.9025C41.976 20.9925 41.8338 21.0988 41.7437 21.2212C41.6573 21.3436 41.6141 21.4805 41.6141 21.6317C41.6141 21.7758 41.6375 21.9 41.6843 22.0044C41.7311 22.1089 41.7941 22.1953 41.8734 22.2637C41.9562 22.3285 42.0516 22.3772 42.1597 22.4096C42.2713 22.4384 42.3901 22.4528 42.5162 22.4528C42.6854 22.4528 42.8403 22.4366 42.9807 22.4042C43.1212 22.3681 43.2526 22.3177 43.375 22.2529C43.5011 22.1881 43.6199 22.1107 43.7316 22.0206C43.8468 21.9306 43.9584 21.828 44.0665 21.7127V20.5784ZM40.9605 18.3421C41.263 18.0504 41.5889 17.8325 41.9382 17.6885C42.2875 17.5444 42.6746 17.4724 43.0996 17.4724C43.4056 17.4724 43.6775 17.5228 43.9152 17.6237C44.1529 17.7245 44.3527 17.8649 44.5148 18.045C44.6768 18.225 44.7993 18.4429 44.8821 18.6986C44.9649 18.9543 45.0063 19.2352 45.0063 19.5413V23.0416H44.5796C44.486 23.0416 44.414 23.0272 44.3635 22.9983C44.3131 22.9659 44.2735 22.9047 44.2447 22.8147L44.1367 22.2961C43.9926 22.4294 43.8522 22.5482 43.7153 22.6526C43.5785 22.7535 43.4345 22.8399 43.2832 22.9119C43.132 22.9803 42.9699 23.0326 42.7971 23.0686C42.6278 23.1082 42.4387 23.128 42.2299 23.128C42.0174 23.128 41.8175 23.0992 41.6303 23.0416C41.443 22.9803 41.2792 22.8903 41.1387 22.7715C41.0019 22.6526 40.8921 22.5032 40.8092 22.3231C40.73 22.1395 40.6904 21.9234 40.6904 21.6749C40.6904 21.4589 40.7498 21.2518 40.8687 21.0537C40.9875 20.8521 41.1801 20.6738 41.4466 20.519C41.7131 20.3641 42.0606 20.2381 42.4892 20.1409C42.9177 20.04 43.4435 19.9824 44.0665 19.968V19.5413C44.0665 19.1163 43.9746 18.7958 43.791 18.5798C43.6073 18.3601 43.339 18.2503 42.9861 18.2503C42.7484 18.2503 42.5486 18.2809 42.3865 18.3421C42.2281 18.3997 42.0894 18.4663 41.9706 18.5419C41.8554 18.614 41.7545 18.6806 41.6681 18.7418C41.5853 18.7994 41.5025 18.8282 41.4196 18.8282C41.3548 18.8282 41.299 18.812 41.2522 18.7796C41.2054 18.7436 41.1657 18.7004 41.1333 18.65L40.9605 18.3421Z" fill="white"/>
<path d="M47.3785 18.3637C47.4973 18.2304 47.6233 18.1098 47.7566 18.0018C47.8898 17.8937 48.0303 17.8019 48.1779 17.7263C48.3292 17.6471 48.4876 17.5876 48.6533 17.548C48.8225 17.5048 49.0044 17.4832 49.1988 17.4832C49.4977 17.4832 49.7606 17.5336 49.9875 17.6345C50.2179 17.7317 50.4088 17.8721 50.5601 18.0558C50.7149 18.2359 50.8319 18.4537 50.9112 18.7094C50.9904 18.9651 51.03 19.2478 51.03 19.5575V23.0416H50.0631V19.5575C50.0631 19.1433 49.9677 18.8228 49.7768 18.596C49.5895 18.3655 49.3033 18.2503 48.9179 18.2503C48.6334 18.2503 48.367 18.3187 48.1185 18.4555C47.8736 18.5924 47.6467 18.7778 47.4379 19.0119V23.0416H46.471V17.5696H47.0489C47.1858 17.5696 47.2704 17.6363 47.3028 17.7695L47.3785 18.3637Z" fill="white"/>
</svg>
