<svg width="7" height="8" viewBox="0 0 7 8" fill="none" xmlns="http://www.w3.org/2000/svg">
<path d="M4.89 3.95C4.77 4.02333 4.65 4.08667 4.53 4.14C4.41667 4.18667 4.29667 4.22 4.17 4.24C4.43 4.28 4.67 4.37333 4.89 4.52L6.48 5.45L5.9 6.45L4.31 5.52C4.19 5.44667 4.07667 5.37 3.97 5.29C3.87 5.21 3.78333 5.12333 3.71 5.03C3.79667 5.25 3.84 5.50333 3.84 5.79V7.63H2.66V5.8C2.66 5.66667 2.66667 5.53667 2.68 5.41C2.7 5.28333 2.73 5.16333 2.77 5.05C2.69667 5.14333 2.61 5.22667 2.51 5.3C2.41 5.37333 2.30333 5.44667 2.19 5.52L0.61 6.44L0.0200001 5.44L1.61 4.52C1.86333 4.37333 2.10333 4.28 2.33 4.24C2.09667 4.2 1.85667 4.10333 1.61 3.95L0.0200001 3.02L0.6 2.02L2.19 2.96C2.31 3.03333 2.42 3.11 2.52 3.19C2.62 3.26333 2.71 3.34667 2.79 3.44C2.70333 3.22 2.66 2.97 2.66 2.69V0.84H3.84V2.67C3.84 2.81 3.83 2.94333 3.81 3.07C3.79667 3.19667 3.76667 3.31667 3.72 3.43C3.8 3.33667 3.89 3.25333 3.99 3.18C4.09 3.10667 4.19667 3.03333 4.31 2.96L5.89 2.04L6.48 3.04L4.89 3.95Z" fill="#FF0000"/>
</svg>
