<svg width="56" height="56" viewBox="0 0 56 56" fill="none" xmlns="http://www.w3.org/2000/svg">
<path fill-rule="evenodd" clip-rule="evenodd" d="M28.375 15.9687C28.3745 14.0895 28.8142 12.2364 29.6589 10.5578C30.5035 8.87911 31.7296 7.42167 33.2389 6.3022C34.7483 5.18274 36.4988 4.43239 38.3504 4.11128C40.2019 3.79017 42.1029 3.90724 43.901 4.45309C44.1852 4.53918 44.4423 4.69745 44.6471 4.91245C44.852 5.12745 44.9976 5.39186 45.0698 5.6799C45.1421 5.96794 45.1385 6.26978 45.0593 6.556C44.9802 6.84222 44.8283 7.10306 44.6183 7.31309L37.01 14.9191C37.1569 16.0469 37.673 17.0944 38.4776 17.8982C39.2822 18.702 40.3302 19.2169 41.4581 19.3627L49.0619 11.7566C49.2719 11.5467 49.5327 11.3948 49.819 11.3156C50.1052 11.2365 50.407 11.2329 50.6951 11.3051C50.9831 11.3774 51.2475 11.523 51.4625 11.7278C51.6775 11.9327 51.8358 12.1897 51.9219 12.4739C52.493 14.355 52.5944 16.3475 52.2174 18.2769C51.8403 20.2063 50.9961 22.0139 49.7588 23.5416C48.5215 25.0692 46.9286 26.2704 45.1196 27.0401C43.3106 27.8097 41.3406 28.1243 39.3819 27.9564C37.049 27.7593 35.0965 28.1856 34.0904 29.4093L17.705 49.3125C17.0341 50.1232 16.2013 50.7848 15.2599 51.2551C14.3185 51.7254 13.2893 51.9939 12.2381 52.0434C11.187 52.0929 10.1371 51.9224 9.15564 51.5428C8.1742 51.1631 7.28286 50.5827 6.53868 49.8387C5.7945 49.0947 5.2139 48.2034 4.83404 47.2221C4.45418 46.2407 4.28343 45.1909 4.33274 44.1397C4.38205 43.0886 4.65033 42.0593 5.12039 41.1178C5.59045 40.1763 6.25194 39.3433 7.0625 38.6723L26.9633 22.2845C28.1848 21.2762 28.6133 19.326 28.4162 16.9931C28.3882 16.6524 28.3744 16.3106 28.375 15.9687ZM10.3098 44.3281C10.3098 43.8722 10.4909 43.4351 10.8132 43.1128C11.1355 42.7904 11.5727 42.6093 12.0285 42.6093H12.0469C12.5027 42.6093 12.9399 42.7904 13.2622 43.1128C13.5845 43.4351 13.7656 43.8722 13.7656 44.3281V44.3464C13.7656 44.8023 13.5845 45.2394 13.2622 45.5618C12.9399 45.8841 12.5027 46.0652 12.0469 46.0652H12.0285C11.5727 46.0652 11.1355 45.8841 10.8132 45.5618C10.4909 45.2394 10.3098 44.8023 10.3098 44.3464V44.3281Z" fill="#F9D342"/>
<path d="M23.9658 20.3L18.9219 15.2583V11.6695C18.9219 11.3728 18.845 11.0811 18.6988 10.8229C18.5527 10.5647 18.3421 10.3487 18.0877 10.196L9.49396 5.03975C9.16527 4.84271 8.78016 4.76118 8.39983 4.8081C8.01949 4.85502 7.66574 5.0277 7.39479 5.29871L5.67604 7.01746C5.40504 7.28841 5.23235 7.64215 5.18543 8.02249C5.13852 8.40283 5.22005 8.78794 5.41708 9.11662L10.5733 17.7104C10.726 17.9648 10.942 18.1753 11.2003 18.3215C11.4585 18.4677 11.7501 18.5445 12.0469 18.5445H15.631L20.3565 23.27L23.9658 20.2977V20.3Z" fill="#F9D342"/>
<path fill-rule="evenodd" clip-rule="evenodd" d="M29.6492 40.2123L39.2352 49.796C39.9534 50.5142 40.806 51.0839 41.7444 51.4726C42.6828 51.8613 43.6886 52.0614 44.7043 52.0614C45.72 52.0614 46.7257 51.8613 47.6641 51.4726C48.6025 51.0839 49.4551 50.5142 50.1733 49.796C50.8915 49.0778 51.4613 48.2252 51.8499 47.2868C52.2386 46.3484 52.4387 45.3427 52.4387 44.327C52.4387 43.3113 52.2386 42.3055 51.8499 41.3671C51.4613 40.4287 50.8915 39.5761 50.1733 38.8579L42.5971 31.2839C41.4358 31.4486 40.2596 31.4816 39.0908 31.3825C38.1879 31.3046 37.5279 31.3687 37.104 31.4787C36.9698 31.5071 36.8407 31.5558 36.7213 31.6231L29.6492 40.2123ZM37.4729 37.0956C37.7952 36.7737 38.232 36.5929 38.6875 36.5929C39.143 36.5929 39.5798 36.7737 39.9021 37.0956L44.199 41.3948C44.3678 41.5521 44.5033 41.7419 44.5972 41.9527C44.6911 42.1635 44.7417 42.3911 44.7457 42.6219C44.7498 42.8527 44.7073 43.0819 44.6209 43.2959C44.5345 43.5099 44.4058 43.7044 44.2426 43.8676C44.0794 44.0308 43.885 44.1594 43.6709 44.2459C43.4569 44.3323 43.2277 44.3748 42.9969 44.3707C42.7662 44.3666 42.5386 44.3161 42.3277 44.2222C42.1169 44.1282 41.9271 43.9928 41.7698 43.8239L37.4729 39.5271C37.1511 39.2048 36.9703 38.7679 36.9703 38.3125C36.9703 37.857 37.1511 37.4202 37.4729 37.0979V37.0956Z" fill="#F9D342"/>
</svg>
